<svg version="1.1" id="Layer_1" xmlns="http://www.w3.org/2000/svg" xmlns:xlink="http://www.w3.org/1999/xlink" x="0px" y="0px"
	 width="100%" viewBox="0 0 1024 1024" enable-background="new 0 0 1024 1024" xml:space="preserve">
<path fill="#FEF9F1" opacity="1.000000" stroke="none" 
	d="
M1.000000,964.000000 
	C1.000000,643.036194 1.000000,322.072357 1.000000,1.054271 
	C342.258667,1.054271 683.517334,1.054271 1024.887939,1.054271 
	C1024.887939,342.220184 1024.887939,683.440430 1024.887939,1025.000000 
	C810.304077,1025.000000 595.607971,1025.000000 380.496033,1024.644897 
	C380.261017,1022.250000 381.322906,1018.973633 380.478882,1018.372375 
	C375.234863,1014.636475 369.828583,1010.894775 363.963074,1008.326904 
	C357.416565,1005.460815 350.317566,1003.862000 343.477325,1001.654968 
	C342.545837,1001.354492 341.757751,1000.631470 340.838867,1000.265991 
	C337.201813,998.819763 333.609589,997.197388 329.865845,996.100830 
	C326.241089,995.039062 322.406158,994.714905 318.741180,993.766663 
	C306.652039,990.638855 294.974426,985.474792 281.995636,986.903442 
	C280.142029,987.107483 278.155365,986.038147 276.221680,985.595703 
	C273.810455,985.043945 271.407318,984.429871 268.970734,984.021606 
	C263.120514,983.041565 257.091614,982.732483 251.428070,981.121704 
	C241.765289,978.373352 232.070221,976.667358 222.017151,976.970947 
	C219.202179,977.055969 215.797165,977.773499 213.655197,976.513611 
	C203.911469,970.782776 193.110611,973.641357 182.890396,972.186096 
	C172.179565,970.661011 161.241379,970.810059 150.436295,969.848450 
	C138.590332,968.794128 126.811218,966.814514 114.951553,966.132812 
	C100.107635,965.279480 85.205513,965.495789 70.339653,964.948120 
	C59.749084,964.557922 49.181885,963.236755 38.595215,963.114502 
	C26.068556,962.969849 13.532170,963.667480 1.000000,964.000000 
M574.109924,514.419922 
	C574.126221,514.013306 574.142517,513.606689 574.781738,512.841797 
	C577.068787,502.613586 579.414978,492.397919 581.590759,482.146118 
	C582.005066,480.194305 581.745605,478.099457 582.006531,475.380463 
	C582.057800,474.663055 582.109070,473.945618 582.778564,472.883179 
	C584.919006,463.424225 587.059448,453.965271 590.091797,444.632111 
	C594.077881,444.603058 598.064026,444.574005 602.591980,445.164429 
	C618.656311,445.289215 634.720520,445.434723 650.785095,445.478882 
	C651.605591,445.481140 652.428406,444.612976 653.935852,444.210236 
	C654.620667,444.153503 655.305481,444.096771 656.567444,444.467163 
	C657.874817,444.404297 659.237488,444.560059 660.481262,444.245636 
	C678.738098,439.630280 693.618530,429.964294 704.277344,414.302917 
	C706.135986,411.571930 707.012024,408.172211 708.695435,404.702728 
	C708.749329,404.538666 708.803284,404.374634 709.494934,404.397278 
	C709.840881,402.946320 710.186829,401.495361 710.743774,399.477936 
	C710.756531,399.276855 710.769348,399.075745 711.419250,398.570404 
	C711.889526,397.894470 712.529724,397.281006 712.804565,396.533234 
	C716.940735,385.276093 717.270264,373.501404 717.257812,361.722900 
	C717.254395,358.500824 716.382935,355.279663 716.051575,351.189667 
	C715.985413,349.422607 715.919250,347.655579 716.409424,345.325043 
	C716.409424,342.103516 716.409424,338.881958 716.409424,335.223480 
	C706.881653,335.223480 697.906982,335.165039 688.933411,335.238647 
	C678.294250,335.325897 667.656128,335.526855 656.188293,335.359528 
	C654.430481,335.444397 652.672668,335.529297 650.034851,335.313446 
	C649.371338,335.275818 648.707825,335.205414 648.044312,335.205261 
	C584.529907,335.189392 521.015503,335.176239 457.501068,335.184387 
	C456.017883,335.184601 454.534698,335.428772 452.296082,335.273529 
	C450.195160,335.787567 448.094238,336.301605 445.302704,336.706299 
	C444.605652,336.705353 443.908569,336.704407 442.810883,336.049896 
	C442.218445,335.800354 441.637726,335.366486 441.031891,335.328033 
	C422.912170,334.177917 405.549957,337.708130 389.089966,344.969086 
	C368.447754,354.074951 350.638123,367.009705 336.322723,384.828217 
	C324.328888,399.757050 315.040619,416.149445 311.751434,434.792389 
	C306.173065,466.409882 313.289612,494.392853 340.052734,515.066772 
	C348.687622,521.737000 358.022980,526.688843 369.720947,528.521118 
	C370.266571,528.498413 370.812195,528.475647 371.705597,529.113647 
	C379.578033,529.655457 387.446259,530.313354 395.327972,530.600525 
	C396.380219,530.638916 398.232697,528.956787 398.479645,527.806335 
	C401.990906,511.449432 405.149811,495.016663 408.688995,478.666107 
	C410.949799,468.221497 416.709991,459.808411 425.115021,453.263458 
	C438.981934,442.465302 455.069061,446.018280 471.124146,445.715485 
	C470.964966,447.660431 470.987976,448.952789 470.738098,450.190094 
	C468.108063,463.213470 465.436310,476.228363 462.772461,489.244904 
	C457.441833,515.292603 452.061310,541.330383 446.833832,567.398743 
	C446.137787,570.869934 446.213379,574.495789 445.997253,578.536377 
	C445.997253,578.536377 446.070129,579.021790 445.562836,579.521484 
	C445.205963,580.040161 444.639221,580.515686 444.522339,581.083740 
	C438.487854,610.411072 432.496918,639.747437 426.487549,669.079895 
	C424.998077,676.350220 423.462250,683.610901 421.802979,691.570557 
	C427.381866,691.570557 432.163544,691.670471 436.939972,691.554688 
	C475.866608,690.611267 508.225555,675.770203 533.095459,645.559998 
	C542.877991,633.676880 550.280151,620.276367 554.713257,605.528625 
	C557.958923,594.730896 560.354370,583.659363 562.731750,572.624329 
	C564.930481,562.418884 566.601379,552.099792 569.127869,541.414856 
	C570.194092,536.759399 571.409424,532.131592 572.281433,527.440063 
	C573.044312,523.335938 573.421143,519.160034 574.109924,514.419922 
z"/>
<path fill="#F4EFE7" opacity="1.000000" stroke="none" 
	d="
M1.000000,964.466187 
	C13.532170,963.667480 26.068556,962.969849 38.595215,963.114502 
	C49.181885,963.236755 59.749084,964.557922 70.339653,964.948120 
	C85.205513,965.495789 100.107635,965.279480 114.951553,966.132812 
	C126.811218,966.814514 138.590332,968.794128 150.436295,969.848450 
	C161.241379,970.810059 172.179565,970.661011 182.890396,972.186096 
	C193.110611,973.641357 203.911469,970.782776 213.655197,976.513611 
	C215.797165,977.773499 219.202179,977.055969 222.017151,976.970947 
	C232.070221,976.667358 241.765289,978.373352 251.428070,981.121704 
	C257.091614,982.732483 263.120514,983.041565 268.970734,984.021606 
	C271.407318,984.429871 273.810455,985.043945 276.221680,985.595703 
	C278.155365,986.038147 280.142029,987.107483 281.995636,986.903442 
	C294.974426,985.474792 306.652039,990.638855 318.741180,993.766663 
	C322.406158,994.714905 326.241089,995.039062 329.865845,996.100830 
	C333.609589,997.197388 337.201813,998.819763 340.838867,1000.265991 
	C341.757751,1000.631470 342.545837,1001.354492 343.477325,1001.654968 
	C350.317566,1003.862000 357.416565,1005.460815 363.963074,1008.326904 
	C369.828583,1010.894775 375.234863,1014.636475 380.478882,1018.372375 
	C381.322906,1018.973633 380.261017,1022.250000 380.040070,1024.644897 
	C352.312439,1025.000000 324.624878,1025.000000 296.430969,1024.651855 
	C292.350433,1020.746399 289.374512,1015.918762 285.078003,1013.895386 
	C276.014221,1009.627136 266.466858,1005.946716 256.734467,1003.650208 
	C244.907837,1000.859619 233.446762,995.684143 220.788193,996.889709 
	C218.079498,997.147644 215.230042,996.185242 212.473679,995.641602 
	C199.712158,993.124695 187.052292,989.845642 174.182343,988.187378 
	C157.957321,986.096741 141.576645,985.123413 125.239372,984.019043 
	C107.274689,982.804626 89.279274,982.051697 71.304901,980.970398 
	C63.712914,980.513672 56.149300,979.397705 48.556545,979.197510 
	C41.838051,979.020386 35.095173,979.975403 28.366379,979.930664 
	C19.242594,979.870056 10.121976,979.332825 1.000000,979.000000 
	C1.000000,974.310730 1.000000,969.621521 1.000000,964.466187 
z"/>
<path fill="#E9E5DD" opacity="1.000000" stroke="none" 
	d="
M1.000000,979.463196 
	C10.121976,979.332825 19.242594,979.870056 28.366379,979.930664 
	C35.095173,979.975403 41.838051,979.020386 48.556545,979.197510 
	C56.149300,979.397705 63.712914,980.513672 71.304901,980.970398 
	C89.279274,982.051697 107.274689,982.804626 125.239372,984.019043 
	C141.576645,985.123413 157.957321,986.096741 174.182343,988.187378 
	C187.052292,989.845642 199.712158,993.124695 212.473679,995.641602 
	C215.230042,996.185242 218.079498,997.147644 220.788193,996.889709 
	C233.446762,995.684143 244.907837,1000.859619 256.734467,1003.650208 
	C266.466858,1005.946716 276.014221,1009.627136 285.078003,1013.895386 
	C289.374512,1015.918762 292.350433,1020.746399 295.962341,1024.651855 
	C269.979095,1025.000000 243.958206,1025.000000 217.428619,1024.651123 
	C211.425873,1021.218689 206.012695,1017.977051 200.407150,1015.111755 
	C197.095978,1013.419189 193.480362,1012.322266 190.137802,1010.634155 
	C190.196442,1009.057739 190.512619,1007.565613 189.935638,1006.615967 
	C189.302414,1005.573608 187.846146,1005.031311 186.748474,1004.271057 
	C186.629944,1005.407593 186.656448,1006.585693 186.346436,1007.667358 
	C186.104523,1008.511414 185.444412,1009.235596 184.716782,1010.123047 
	C183.975021,1010.487854 183.486633,1010.742737 183.002289,1010.572021 
	C183.006317,1008.290588 183.006317,1006.434570 183.006317,1004.578613 
	C182.566818,1004.548035 182.127319,1004.517395 181.687805,1004.486816 
	C181.234192,1005.837708 180.780579,1007.188599 180.433731,1008.221558 
	C178.229263,1005.785034 176.148254,1003.484985 173.941879,1001.046387 
	C172.827133,1002.018494 171.930923,1002.800049 171.135605,1003.493591 
	C170.555588,1002.548584 170.142532,1001.875671 169.056992,1000.106995 
	C168.104935,1002.809875 167.540527,1004.412231 166.743469,1006.019409 
	C166.510849,1006.024170 166.045654,1006.036987 165.985901,1005.710754 
	C163.375336,1004.271118 160.904327,1002.802856 158.237991,1002.203064 
	C157.016174,1001.928223 155.410248,1003.360901 153.631073,1004.016724 
	C152.193558,1004.343628 151.103485,1004.673035 149.673660,1004.854492 
	C147.226486,1004.803650 145.119049,1004.900696 142.771179,1005.001770 
	C142.530731,1005.005798 142.049957,1005.019775 141.793381,1004.744629 
	C139.363464,1004.671143 137.190125,1004.872864 134.934021,1004.700928 
	C131.124008,1003.212036 127.396744,1002.096741 124.048119,1001.094727 
	C122.406990,1003.517822 121.224113,1005.264282 120.004753,1006.638550 
	C118.686981,1005.553528 117.405701,1004.840759 116.080597,1003.715332 
	C116.502403,999.145630 114.253120,996.685364 110.672943,995.435364 
	C106.612999,994.017944 103.253174,995.157104 100.833115,998.773071 
	C99.787323,998.363037 98.948616,998.209595 98.213051,997.721130 
	C97.382545,994.190796 94.745201,994.045349 90.789116,996.643555 
	C89.066185,995.871826 87.553307,995.131836 86.010330,995.062561 
	C81.446823,994.857727 76.857391,995.127686 72.304092,994.823242 
	C66.052582,994.405212 59.835953,993.268677 53.584919,993.077942 
	C36.061954,992.543396 18.529009,992.336243 1.000000,992.000000 
	C1.000000,987.975464 1.000000,983.950928 1.000000,979.463196 
M200.127747,1010.807434 
	C200.910492,1009.270325 202.147568,1007.761719 202.246597,1006.181702 
	C202.284805,1005.571899 199.718597,1004.234070 198.378159,1004.283813 
	C197.331528,1004.322571 196.345459,1005.993164 195.332458,1006.938660 
	C196.683884,1008.271118 198.035294,1009.603577 200.127747,1010.807434 
M208.916428,1007.656433 
	C209.187576,1008.603638 209.458710,1009.550781 209.729858,1010.497986 
	C210.208389,1010.384705 210.686935,1010.271423 211.165482,1010.158142 
	C210.710175,1008.303406 210.722641,1006.064697 209.629623,1004.733521 
	C208.939819,1003.893311 205.557846,1003.810425 205.198914,1004.433533 
	C204.254700,1006.072754 204.303009,1008.283691 203.945694,1010.325684 
	C207.291199,1010.354004 204.242386,1004.586792 208.916428,1007.656433 
z"/>
<path fill="#C4C0BA" opacity="1.000000" stroke="none" 
	d="
M116.124413,1004.127930 
	C117.405701,1004.840759 118.686981,1005.553528 119.990509,1007.000977 
	C120.877045,1008.658630 121.713005,1010.340942 122.610481,1010.374329 
	C126.717911,1010.527649 130.842575,1010.218994 135.056168,1010.357666 
	C135.865601,1015.441345 137.361603,1015.952637 142.381378,1012.983215 
	C153.361221,1016.085449 163.933136,1019.119141 174.449387,1022.334961 
	C175.475327,1022.648621 176.158005,1024.084839 177.000000,1025.000000 
	C118.333313,1025.000000 59.666630,1025.000000 1.000000,1025.000000 
	C1.000000,1019.246948 1.000000,1013.593201 1.418266,1007.464722 
	C3.485083,1006.853516 5.150888,1006.495117 6.778982,1006.621704 
	C11.861415,1007.016907 18.264101,1002.846130 20.563883,1009.796021 
	C22.770920,1009.796021 24.217226,1009.796021 25.813198,1009.796021 
	C25.930454,1009.184509 26.140739,1008.087769 26.410383,1006.681458 
	C28.319756,1011.730164 39.744106,1012.949280 42.729923,1009.948730 
	C45.952782,1010.169861 49.453205,1011.254944 50.130379,1010.312134 
	C53.296692,1005.903992 55.586517,1008.470398 58.190392,1010.804382 
	C59.009533,1009.724548 59.726147,1008.779907 60.597862,1007.630737 
	C61.809589,1011.576538 63.300777,1011.236145 64.552032,1009.084717 
	C66.228058,1009.560120 67.507072,1010.226624 68.790192,1010.234619 
	C74.505287,1010.270203 80.221558,1010.117493 86.221710,1010.339600 
	C88.615715,1010.781067 90.773293,1010.688538 92.820602,1011.119568 
	C94.588600,1011.491821 96.231232,1012.459473 98.307938,1013.320984 
	C99.252350,1011.438293 100.618439,1008.714905 102.280281,1006.024109 
	C103.049896,1006.370789 103.523766,1006.684937 103.832153,1007.339355 
	C102.356995,1010.051025 103.219620,1011.125793 105.759285,1011.010071 
	C110.569038,1010.790833 114.399902,1009.027283 116.124413,1004.127930 
z"/>
<path fill="#DBD8D1" opacity="1.000000" stroke="none" 
	d="
M85.937408,1010.032837 
	C80.221558,1010.117493 74.505287,1010.270203 68.790192,1010.234619 
	C67.507072,1010.226624 66.228058,1009.560120 64.552032,1009.084717 
	C63.300777,1011.236145 61.809589,1011.576538 60.597862,1007.630737 
	C59.726147,1008.779907 59.009533,1009.724548 58.190392,1010.804382 
	C55.586517,1008.470398 53.296692,1005.903992 50.130379,1010.312134 
	C49.453205,1011.254944 45.952782,1010.169861 42.729923,1009.948730 
	C39.744106,1012.949280 28.319756,1011.730164 26.410383,1006.681458 
	C26.140739,1008.087769 25.930454,1009.184509 25.813198,1009.796021 
	C24.217226,1009.796021 22.770920,1009.796021 20.563883,1009.796021 
	C18.264101,1002.846130 11.861415,1007.016907 6.778982,1006.621704 
	C5.150888,1006.495117 3.485083,1006.853516 1.418266,1006.994995 
	C1.000000,1002.310730 1.000000,997.621521 1.000000,992.466125 
	C18.529009,992.336243 36.061954,992.543396 53.584919,993.077942 
	C59.835953,993.268677 66.052582,994.405212 72.304092,994.823242 
	C76.857391,995.127686 81.446823,994.857727 86.010330,995.062561 
	C87.553307,995.131836 89.066185,995.871826 90.743896,997.014038 
	C89.242455,1001.826111 87.589928,1005.929504 85.937408,1010.032837 
z"/>
<path fill="#DBD8D1" opacity="1.000000" stroke="none" 
	d="
M177.468658,1025.000000 
	C176.158005,1024.084839 175.475327,1022.648621 174.449387,1022.334961 
	C163.933136,1019.119141 153.361221,1016.085449 142.387833,1012.543335 
	C141.997192,1009.730408 142.023575,1007.375122 142.049957,1005.019775 
	C142.049957,1005.019775 142.530731,1005.005798 142.761749,1005.416260 
	C143.678391,1007.488770 143.976334,1009.609131 145.195526,1010.640442 
	C145.922195,1011.255066 148.697937,1010.644836 149.457138,1009.702637 
	C150.295624,1008.662109 149.881805,1006.612549 150.013428,1005.002441 
	C151.103485,1004.673035 152.193558,1004.343628 153.634872,1004.456543 
	C154.559555,1006.906799 154.856659,1010.454834 155.761246,1010.617126 
	C157.964722,1011.012512 160.449921,1009.837891 163.213013,1009.206055 
	C163.126053,1009.078369 163.808960,1010.081299 164.491867,1011.084290 
	C164.917969,1010.955200 165.344070,1010.826172 165.770172,1010.697144 
	C165.862000,1009.143738 165.953827,1007.590393 166.045654,1006.036987 
	C166.045654,1006.036987 166.510849,1006.024170 166.760406,1006.426147 
	C167.286667,1008.196777 167.563385,1009.565308 167.840118,1010.933899 
	C168.266296,1010.911926 168.692474,1010.889954 169.118668,1010.868042 
	C169.669083,1009.384277 170.219498,1007.900574 170.968506,1005.881531 
	C172.734100,1011.300110 172.734100,1011.300110 175.184036,1008.994568 
	C175.638367,1008.997559 175.820099,1008.997559 176.185974,1009.327087 
	C178.579483,1010.103577 180.788864,1010.550537 182.998245,1010.997559 
	C183.486633,1010.742737 183.975021,1010.487854 184.981979,1010.389038 
	C187.000931,1010.682495 188.501297,1010.819946 190.001663,1010.957397 
	C193.480362,1012.322266 197.095978,1013.419189 200.407150,1015.111755 
	C206.012695,1017.977051 211.425873,1021.218689 216.959961,1024.651123 
	C203.979111,1025.000000 190.958206,1025.000000 177.468658,1025.000000 
z"/>
<path fill="#5FA5F0" opacity="1.000000" stroke="none" 
	d="
M582.160278,473.228210 
	C582.109070,473.945618 582.057800,474.663055 581.638550,475.962830 
	C579.856201,482.372589 578.441711,488.199982 576.693848,493.851532 
	C575.186401,493.124573 574.006226,492.090759 572.839233,492.105408 
	C567.625000,492.170654 562.411865,492.491547 557.203796,492.809052 
	C554.421082,492.978668 552.501038,492.542053 551.795593,489.184845 
	C551.526367,487.903778 549.301208,486.305023 547.820435,486.135773 
	C541.996643,485.469910 536.110046,485.370270 530.257446,484.921417 
	C529.181335,484.838837 528.130249,484.161316 527.109253,483.671570 
	C519.272888,479.912537 512.146118,474.064972 502.265656,475.653381 
	C502.438293,473.811707 502.583466,472.263153 502.739014,470.604218 
	C500.819305,470.018311 498.977295,469.714203 497.397125,468.901245 
	C495.814728,468.087067 494.510620,466.741791 493.055145,465.669189 
	C488.497101,462.310089 486.911011,462.701233 482.926666,466.799133 
	C481.800385,467.957489 479.215607,468.482635 477.537445,468.138672 
	C474.908020,467.599670 472.480743,466.074524 469.962341,464.563171 
	C471.086304,459.221222 472.458832,454.320404 473.225159,449.326569 
	C473.530121,447.338959 472.493683,445.145508 472.088379,442.648621 
	C473.399994,436.498169 474.691132,430.744812 475.992554,424.654968 
	C476.339081,423.545349 476.675323,422.772217 477.403320,421.999878 
	C480.614746,421.847504 481.235535,422.941040 480.340607,425.648865 
	C479.560791,428.008423 480.118073,429.746216 483.385986,429.841034 
	C485.378143,429.898834 487.568024,430.762787 489.265503,431.878571 
	C493.745972,434.823761 497.330414,440.170715 503.924072,436.269806 
	C504.704681,435.807983 506.270233,436.192566 507.260895,436.645905 
	C512.759399,439.162140 520.401428,434.623169 524.449341,441.859680 
	C524.500183,441.950562 524.778442,441.979523 524.925903,441.941681 
	C531.346924,440.294983 535.782471,443.069031 540.952698,446.928711 
	C544.943359,449.907867 548.400696,453.259857 552.068237,456.493134 
	C553.309082,457.586975 554.902893,458.524048 556.490356,458.937378 
	C562.363770,460.466553 568.330872,461.636261 574.201721,463.174286 
	C576.620605,463.807983 578.884827,465.032257 580.639526,465.750549 
	C582.085327,463.687378 583.020874,462.352386 583.957153,461.422729 
	C583.358704,465.628113 582.759521,469.428162 582.160278,473.228210 
z"/>
<path fill="#83BEF2" opacity="1.000000" stroke="none" 
	d="
M650.914856,335.614166 
	C652.672668,335.529297 654.430481,335.444397 656.602173,335.797302 
	C657.007202,336.811981 656.998352,337.388824 656.740356,338.236725 
	C653.655945,339.312286 650.820679,340.116821 647.613586,340.949615 
	C644.454468,342.283295 641.667114,343.588715 638.524902,344.955139 
	C635.452393,346.632660 632.734619,348.249146 629.669922,349.922607 
	C624.157593,354.943207 618.992126,359.906830 613.654785,365.158966 
	C610.024231,369.977753 606.565552,374.507996 602.848877,378.842834 
	C603.964966,371.098328 602.521851,369.441925 594.572937,367.833466 
	C590.710938,367.051971 586.093323,367.014160 584.676758,361.695160 
	C584.247009,360.081573 582.262024,357.431763 581.538940,357.601257 
	C578.621460,358.285065 574.472778,356.826324 573.271423,361.475616 
	C572.341187,365.075714 569.517761,365.947754 566.699524,364.237457 
	C562.976074,361.977844 559.704407,358.973846 556.084473,356.170563 
	C557.580811,354.814667 558.826599,353.685822 561.201965,351.533478 
	C558.459839,351.370636 556.695557,350.699432 555.854126,351.306763 
	C549.857056,355.635468 543.675903,352.331573 537.686951,351.751373 
	C534.829712,351.474579 532.094177,349.370728 529.423218,347.880005 
	C525.717651,345.811890 522.181580,343.434814 518.437012,341.445923 
	C517.656494,341.031372 516.049438,341.396729 515.219604,341.973175 
	C508.029907,346.967590 502.722961,340.956177 496.758698,338.899628 
	C496.572906,338.835541 496.640656,338.035980 496.526062,336.998779 
	C498.665070,336.998779 500.614166,336.998840 502.563232,336.998749 
	C550.224243,336.997131 597.885254,337.010498 645.546204,336.935699 
	C647.336426,336.932892 649.125305,336.074097 650.914856,335.614166 
z"/>
<path fill="#7BB9F2" opacity="1.000000" stroke="none" 
	d="
M650.474854,335.463806 
	C649.125305,336.074097 647.336426,336.932892 645.546204,336.935699 
	C597.885254,337.010498 550.224243,336.997131 502.563232,336.998749 
	C500.614166,336.998840 498.665070,336.998779 496.526062,336.998779 
	C496.640656,338.035980 496.572906,338.835541 496.758698,338.899628 
	C502.722961,340.956177 508.029907,346.967590 515.219604,341.973175 
	C516.049438,341.396729 517.656494,341.031372 518.437012,341.445923 
	C522.181580,343.434814 525.717651,345.811890 529.423218,347.880005 
	C532.094177,349.370728 534.829712,351.474579 537.686951,351.751373 
	C543.675903,352.331573 549.857056,355.635468 555.854126,351.306763 
	C556.695557,350.699432 558.459839,351.370636 561.201965,351.533478 
	C558.826599,353.685822 557.580811,354.814667 556.084473,356.170563 
	C559.704407,358.973846 562.976074,361.977844 566.699524,364.237457 
	C569.517761,365.947754 572.341187,365.075714 573.271423,361.475616 
	C574.472778,356.826324 578.621460,358.285065 581.538940,357.601257 
	C582.262024,357.431763 584.247009,360.081573 584.676758,361.695160 
	C586.093323,367.014160 590.710938,367.051971 594.572937,367.833466 
	C602.521851,369.441925 603.964966,371.098328 602.804321,379.166870 
	C602.649353,380.468903 602.280945,381.251526 601.768066,382.112762 
	C601.401062,382.493378 601.458069,382.760590 601.881104,382.994995 
	C601.967529,382.996979 602.140137,382.986847 602.070312,383.326843 
	C601.933350,384.124695 601.866211,384.582520 601.619324,385.162476 
	C601.222900,385.493011 601.083069,385.744263 601.016174,386.015930 
	C601.012268,385.993530 601.043213,386.027649 600.696533,386.070740 
	C598.889038,387.046295 597.428223,387.978729 595.807861,389.013000 
	C595.435364,388.080414 595.033813,387.591064 595.116150,387.204834 
	C596.700806,379.768707 596.694092,379.805634 588.525085,380.872101 
	C586.055542,381.194519 583.419250,381.518005 582.932129,377.740448 
	C582.771851,376.497833 581.399292,374.305450 580.958191,374.395447 
	C578.981995,374.798676 576.422791,375.345581 575.374756,376.786591 
	C570.358765,383.683441 566.583557,383.663300 562.605225,376.090851 
	C561.126404,373.275970 559.154480,372.421356 556.014893,371.844055 
	C544.701782,369.763824 533.501404,367.066803 522.274719,364.530670 
	C521.546021,364.366089 520.637512,363.734894 520.347900,363.082947 
	C517.114258,355.804840 510.344757,353.312042 504.113861,355.441376 
	C497.577362,357.675140 493.626770,354.715454 489.304810,352.008484 
	C482.984497,348.049835 476.507324,349.241852 469.609619,349.907593 
	C465.208862,346.819427 461.101379,343.891357 456.950317,340.615784 
	C455.621674,338.698608 454.336609,337.128876 453.051514,335.559143 
	C454.534698,335.428772 456.017883,335.184601 457.501068,335.184387 
	C521.015503,335.176239 584.529907,335.189392 648.044312,335.205261 
	C648.707825,335.205414 649.371338,335.275818 650.474854,335.463806 
z"/>
<path fill="#3787EB" opacity="1.000000" stroke="none" 
	d="
M446.070129,579.021790 
	C446.070129,579.021790 445.997253,578.536377 446.140778,578.010254 
	C446.969177,575.333252 447.654053,573.182434 448.696716,571.009033 
	C450.049225,569.893311 451.054901,568.809753 452.035583,567.704163 
	C453.079498,566.527344 454.117828,564.305969 455.127228,564.323669 
	C458.865234,564.389404 462.662598,564.931885 466.258789,565.935913 
	C466.970520,566.134583 466.881165,569.170593 467.184265,570.894043 
	C467.240295,571.212463 467.380157,571.524902 467.527039,571.817200 
	C469.059204,574.867004 479.748230,580.723145 482.863586,579.328308 
	C487.163391,577.403137 489.084198,579.750305 491.779694,582.115845 
	C494.464417,584.471924 497.785828,586.097351 500.801636,588.083252 
	C502.715118,589.343262 505.255157,590.266907 506.340118,592.054138 
	C509.537201,597.320496 513.465393,597.841675 518.342896,594.922424 
	C519.549805,594.200134 520.406555,592.484131 521.613647,592.264099 
	C523.539856,591.912903 526.863159,591.732971 527.415894,592.711670 
	C529.248840,595.957031 530.108154,599.752319 531.367432,603.413513 
	C534.500977,603.413513 538.566162,602.444275 541.797180,603.671387 
	C545.419067,605.046875 548.902100,608.016602 548.074219,613.480652 
	C546.070740,618.594849 544.061584,623.314636 541.775513,627.798706 
	C541.498657,625.860168 541.498657,624.157349 541.498657,622.719360 
	C536.975464,621.882751 532.781494,621.030151 528.556396,620.379639 
	C527.501526,620.217163 526.186340,620.421448 525.262817,620.940918 
	C518.096802,624.971375 515.944519,622.998413 510.767883,616.785339 
	C505.231079,610.140137 499.329773,603.511963 488.950897,606.869995 
	C487.161957,607.448792 484.926727,607.169189 483.015808,606.748840 
	C478.001587,605.645996 473.038300,604.298035 468.089539,602.922546 
	C467.074951,602.640564 465.402161,601.812256 465.402649,601.236938 
	C465.408325,594.376587 459.357605,595.828186 455.713379,594.292847 
	C454.590424,593.819763 452.498505,595.108887 451.087463,595.976685 
	C448.622498,597.492798 446.341339,599.307800 443.986267,600.587769 
	C443.982758,599.078186 443.976105,597.978516 443.954498,596.481018 
	C444.608521,593.064148 445.277527,590.044983 446.278748,586.972290 
	C447.062195,586.241089 447.513336,585.563354 447.910461,584.535278 
	C447.261017,582.463867 446.665588,580.742798 446.070129,579.021790 
z"/>
<path fill="#83BEF2" opacity="1.000000" stroke="none" 
	d="
M371.357819,528.452881 
	C370.812195,528.475647 370.266571,528.498413 369.314148,528.049072 
	C363.479767,525.176453 357.826569,523.174805 352.685577,520.267395 
	C347.107391,517.112732 341.481354,513.674683 336.843323,509.328247 
	C332.141388,504.921844 329.039062,498.833954 324.449890,494.273743 
	C320.840240,490.686981 319.039764,486.674805 318.354034,482.041321 
	C319.364014,482.544403 320.387268,482.869141 320.625183,483.493286 
	C322.356598,488.035034 324.763458,488.698120 329.799866,487.596893 
	C335.561676,486.337036 342.249237,484.929382 347.541443,490.555908 
	C349.221344,492.341919 352.168701,493.187225 354.696045,493.876251 
	C361.481750,495.726196 368.393677,497.114990 375.173370,498.984558 
	C378.131409,499.800293 381.680237,500.620422 383.579803,502.699982 
	C388.127991,507.679260 394.406219,508.488373 399.948883,511.359039 
	C398.358215,517.404724 396.806427,523.068909 395.178345,529.011536 
	C392.864502,529.011536 390.722870,529.060913 388.584229,529.001953 
	C382.841400,528.843689 377.099854,528.639099 371.357819,528.452881 
z"/>
<path fill="#1D72E8" opacity="1.000000" stroke="none" 
	d="
M456.993896,340.963257 
	C461.101379,343.891357 465.208862,346.819427 469.773163,350.202209 
	C473.206818,355.434631 476.183624,360.212311 479.154907,365.361206 
	C480.163055,368.815735 481.176727,371.899078 481.786133,374.949219 
	C478.174835,374.277435 474.936005,373.765778 471.767975,372.971558 
	C466.539154,371.660645 461.322998,370.277405 456.161041,368.726410 
	C447.084106,365.999115 438.983154,361.337891 428.865936,360.373413 
	C418.281036,359.364349 405.943939,357.331177 400.528046,344.852936 
	C400.262482,344.241150 398.795990,344.150635 398.153259,343.559937 
	C406.763367,341.403168 415.040436,339.065918 423.476715,337.746307 
	C429.950928,336.733551 436.625854,337.003815 443.211517,336.703461 
	C443.908569,336.704407 444.605652,336.705353 445.779877,337.116638 
	C449.835999,338.672424 453.414948,339.817841 456.993896,340.963257 
z"/>
<path fill="#5FA5F0" opacity="1.000000" stroke="none" 
	d="
M647.985352,340.921326 
	C650.820679,340.116821 653.655945,339.312286 657.138977,338.244019 
	C659.850952,337.673523 661.915222,337.366730 663.973755,337.447021 
	C663.316650,339.966125 661.975342,342.150696 662.132874,344.221191 
	C662.829102,353.373840 663.968384,362.492462 664.924927,371.625732 
	C666.295715,384.713562 667.644348,397.803680 669.012512,410.891754 
	C669.115173,411.873596 669.140869,412.904358 669.471069,413.814911 
	C671.706421,419.979645 671.518005,426.043793 669.569580,432.301697 
	C669.072021,433.899750 670.500427,436.097412 670.811401,438.282532 
	C665.715881,440.377014 660.853088,442.208496 655.990295,444.040039 
	C655.305481,444.096771 654.620667,444.153503 653.120605,444.118347 
	C641.798889,444.179138 631.292419,444.331787 620.822876,444.237915 
	C620.996399,443.685425 621.083679,443.365997 621.571899,443.048218 
	C626.356262,443.049225 630.690369,443.035126 635.472595,443.024658 
	C639.617920,442.690826 643.315063,442.353363 647.438538,442.017029 
	C653.901489,441.977448 656.785706,439.779999 656.981812,434.844452 
	C657.374390,424.964508 657.705750,415.081696 657.967957,405.197540 
	C658.015686,403.396545 657.673157,401.575073 657.410950,399.777618 
	C655.624817,387.532043 653.469666,375.327484 652.134338,363.033600 
	C651.317505,355.512817 653.472717,347.542877 647.985352,340.921326 
z"/>
<path fill="#7BB9F2" opacity="1.000000" stroke="none" 
	d="
M663.979492,337.059937 
	C661.915222,337.366730 659.850952,337.673523 657.388062,337.973022 
	C656.998352,337.388824 657.007202,336.811981 657.016785,335.956848 
	C667.656128,335.526855 678.294250,335.325897 688.933411,335.238647 
	C697.906982,335.165039 706.881653,335.223480 716.409424,335.223480 
	C716.409424,338.881958 716.409424,342.103516 715.879395,345.320129 
	C714.465576,337.003967 714.464722,336.939178 708.573792,337.014954 
	C705.622131,337.052917 702.079346,336.491241 699.956543,337.916931 
	C698.759949,338.720612 700.148376,343.029175 699.956848,345.729431 
	C698.688721,363.605988 704.263550,380.816650 704.978088,398.491669 
	C705.071350,400.799164 704.990906,403.113708 704.990906,405.790192 
	C705.916199,405.594452 707.129028,405.337921 708.341919,405.081360 
	C707.012024,408.172211 706.135986,411.571930 704.277344,414.302917 
	C693.618530,429.964294 678.738098,439.630280 660.481262,444.245636 
	C659.237488,444.560059 657.874817,444.404297 656.278870,444.253601 
	C660.853088,442.208496 665.715881,440.377014 671.164001,438.236786 
	C673.508911,437.262604 675.268555,436.597137 677.239990,435.841949 
	C677.715576,435.574219 677.902832,435.335968 678.312134,434.899597 
	C679.427734,434.464661 680.244690,434.167664 681.248901,433.800903 
	C681.667419,433.574493 681.816650,433.360535 682.184570,432.923767 
	C684.324463,430.838837 686.163452,428.919434 688.319580,426.859375 
	C689.817749,426.108673 691.441467,425.799103 692.097595,424.832642 
	C694.132202,421.835754 697.158691,418.650391 697.303894,415.425781 
	C697.547913,410.004730 695.661560,404.520355 695.048401,399.020569 
	C694.108643,390.591064 695.118896,381.539154 692.339783,373.817383 
	C688.457275,363.029633 690.804688,351.957825 688.252686,341.241577 
	C687.325623,337.348816 686.037231,336.644073 682.865417,337.073578 
	C681.562195,337.250031 680.293945,337.684601 678.588623,337.989716 
	C673.438171,337.671753 668.708862,337.365845 663.979492,337.059937 
z"/>
<path fill="#5FA5F0" opacity="1.000000" stroke="none" 
	d="
M445.816467,579.271606 
	C446.665588,580.742798 447.261017,582.463867 447.585602,584.601562 
	C446.858673,585.687500 446.402618,586.356689 445.946533,587.025879 
	C445.277527,590.044983 444.608521,593.064148 443.689880,596.734619 
	C443.255432,598.575439 443.070648,599.765015 442.621826,601.226440 
	C441.204926,608.320862 440.052032,615.143372 438.893555,622.281982 
	C438.900604,623.019287 438.913239,623.440308 438.715942,624.007568 
	C438.322144,624.435974 438.138336,624.718262 437.770081,625.359009 
	C436.341919,631.457581 435.098145,637.197693 433.715302,643.277161 
	C433.304413,645.053772 433.032654,646.491028 432.537109,648.223511 
	C432.147186,650.233093 431.980988,651.947449 431.566132,653.990234 
	C430.917999,656.422058 430.574280,658.537781 430.109070,660.626465 
	C428.470978,667.981018 426.805908,675.329651 425.122559,682.673950 
	C423.748810,688.667480 424.910095,690.259705 431.061462,690.091614 
	C437.503632,689.915588 444.016785,689.984314 450.354156,689.007141 
	C456.385834,688.077148 462.230682,685.935181 468.508698,684.271729 
	C469.572174,684.185425 470.284607,684.153442 471.370361,684.111206 
	C474.895264,682.835632 478.046783,681.570312 481.506592,680.225403 
	C482.897156,679.540100 483.979370,678.934326 485.456909,678.293335 
	C490.020844,675.879089 494.189392,673.500122 498.703857,671.136230 
	C500.995239,670.123474 502.940674,669.095581 505.172150,667.994385 
	C505.732758,667.643616 506.007355,667.366028 506.558350,666.938538 
	C507.597687,665.593323 508.360626,664.398010 509.403870,663.149902 
	C510.151642,662.803223 510.619141,662.509338 511.330322,662.206726 
	C511.573975,662.197937 512.052612,662.104553 512.374756,662.071167 
	C513.829224,661.106384 514.961487,660.174988 516.388062,659.073120 
	C518.173035,657.333313 519.663696,655.763855 521.438904,654.017700 
	C528.164612,645.920776 534.605835,638.000549 541.258545,629.955811 
	C541.732727,629.614380 541.900024,629.339355 541.991821,628.763306 
	C542.011780,628.520325 542.052429,628.034424 542.052429,628.034424 
	C544.061584,623.314636 546.070740,618.594849 548.380310,613.293213 
	C549.152344,611.167725 549.623962,609.624023 550.326050,607.893127 
	C550.747498,607.153198 550.938599,606.600525 551.400269,605.813232 
	C553.802917,596.388245 555.934998,587.197937 558.394348,577.818848 
	C559.831421,571.758545 560.941345,565.887024 562.323853,559.744507 
	C563.108704,556.739014 563.440369,553.955322 564.171204,551.280640 
	C565.660217,545.830811 567.364441,540.439819 568.986755,535.399780 
	C568.830566,537.793579 568.667664,539.812134 568.504761,541.830750 
	C566.601379,552.099792 564.930481,562.418884 562.731750,572.624329 
	C560.354370,583.659363 557.958923,594.730896 554.713257,605.528625 
	C550.280151,620.276367 542.877991,633.676880 533.095459,645.559998 
	C508.225555,675.770203 475.866608,690.611267 436.939972,691.554688 
	C432.163544,691.670471 427.381866,691.570557 421.802979,691.570557 
	C423.462250,683.610901 424.998077,676.350220 426.487549,669.079895 
	C432.496918,639.747437 438.487854,610.411072 444.522339,581.083740 
	C444.639221,580.515686 445.205963,580.040161 445.816467,579.271606 
z"/>
<path fill="#1D72E8" opacity="1.000000" stroke="none" 
	d="
M621.121582,443.033081 
	C621.083679,443.365997 620.996399,443.685425 620.371460,444.211487 
	C613.938721,444.469360 607.994446,444.507141 602.050110,444.544922 
	C598.064026,444.574005 594.077881,444.603058 589.664673,444.539917 
	C589.237488,444.447754 589.175415,444.412994 589.160095,444.175659 
	C589.057007,443.620087 588.965271,443.302979 588.914429,442.579468 
	C589.315796,439.783356 589.672119,437.394806 590.055420,434.582275 
	C590.219177,432.855988 590.253052,431.532959 590.509766,430.254700 
	C592.121277,422.229370 593.782532,414.213989 595.629028,405.858643 
	C597.568176,399.023834 599.305725,392.525726 601.043213,386.027649 
	C601.043213,386.027649 601.012268,385.993530 601.233276,385.925049 
	C601.757080,385.663879 601.872009,385.391815 601.799072,385.040375 
	C601.866211,384.582520 601.933350,384.124695 602.394409,383.396118 
	C604.519592,384.379669 607.357788,385.336487 607.788818,386.940277 
	C609.570007,393.567444 611.375793,400.348907 611.752014,407.152252 
	C612.226196,415.726532 611.172791,424.375275 611.036865,432.995972 
	C610.878662,443.035736 611.000000,443.037659 620.998962,443.016754 
	C621.039429,443.024811 621.121582,443.033081 621.121582,443.033081 
z"/>
<path fill="#83BEF2" opacity="1.000000" stroke="none" 
	d="
M708.518677,404.892029 
	C707.129028,405.337921 705.916199,405.594452 704.990906,405.790192 
	C704.990906,403.113708 705.071350,400.799164 704.978088,398.491669 
	C704.263550,380.816650 698.688721,363.605988 699.956848,345.729431 
	C700.148376,343.029175 698.759949,338.720612 699.956543,337.916931 
	C702.079346,336.491241 705.622131,337.052917 708.573792,337.014954 
	C714.464722,336.939178 714.465576,337.003967 715.601257,345.601868 
	C715.919250,347.655579 715.985413,349.422607 715.711487,351.928833 
	C715.251709,358.794647 715.334778,364.933899 714.953552,371.044189 
	C714.592041,376.837372 713.880066,382.619629 713.059814,388.369263 
	C712.555115,391.907349 711.558105,395.375244 710.782166,398.874664 
	C710.769348,399.075745 710.756531,399.276855 710.361572,399.811462 
	C709.605347,401.500183 709.231262,402.855408 708.857178,404.210632 
	C708.803284,404.374634 708.749329,404.538666 708.518677,404.892029 
z"/>
<path fill="#7BB9F2" opacity="1.000000" stroke="none" 
	d="
M371.531708,528.783264 
	C377.099854,528.639099 382.841400,528.843689 388.584229,529.001953 
	C390.722870,529.060913 392.864502,529.011536 395.178345,529.011536 
	C396.806427,523.068909 398.358215,517.404724 399.951904,510.930786 
	C400.513397,507.031494 401.022705,503.940186 401.554657,500.852814 
	C402.695404,494.231934 403.847809,487.613068 405.271545,480.740417 
	C407.034637,475.997375 408.521606,471.507233 410.017517,466.768250 
	C410.026459,466.519409 410.033722,466.021454 410.317993,465.874390 
	C411.069489,464.823120 411.536713,463.918884 412.143921,462.708740 
	C415.853241,458.611877 419.422668,454.820923 423.239960,451.032227 
	C423.487823,451.034515 423.983276,451.016785 424.285767,450.996613 
	C425.059601,450.646149 425.530914,450.315857 426.182770,449.697632 
	C427.918854,448.632019 429.474396,447.854340 431.252930,446.952942 
	C431.683014,446.563843 431.890076,446.298462 432.302216,445.929199 
	C432.756836,445.633148 432.936096,445.389282 433.455566,445.079102 
	C445.906860,444.384003 457.947662,443.703552 470.334381,443.038788 
	C471.142853,443.051575 471.605377,443.048676 472.067932,443.045746 
	C472.493683,445.145508 473.530121,447.338959 473.225159,449.326569 
	C472.458832,454.320404 471.086304,459.221222 469.955078,464.907562 
	C469.953369,466.114105 469.953461,466.572388 469.917572,467.369110 
	C469.581207,468.794434 469.280823,469.881348 468.960266,471.367065 
	C466.942444,481.835876 464.944794,491.905884 462.939514,502.341553 
	C462.927917,503.438019 462.923920,504.168823 462.610229,505.096863 
	C461.516937,508.519623 460.733337,511.745178 459.926636,515.365967 
	C458.920715,520.500183 457.937897,525.239075 456.937683,530.348267 
	C456.895813,531.458496 456.871277,532.198608 456.598022,533.185669 
	C456.166443,534.578430 455.983551,535.724121 455.550049,537.163696 
	C454.496185,542.975403 453.693024,548.493347 452.697327,554.324463 
	C451.116180,560.102356 449.727509,565.566956 448.338867,571.031555 
	C447.654053,573.182434 446.969177,575.333252 446.107941,577.767090 
	C446.213379,574.495789 446.137787,570.869934 446.833832,567.398743 
	C452.061310,541.330383 457.441833,515.292603 462.772461,489.244904 
	C465.436310,476.228363 468.108063,463.213470 470.738098,450.190094 
	C470.987976,448.952789 470.964966,447.660431 471.124146,445.715485 
	C455.069061,446.018280 438.981934,442.465302 425.115021,453.263458 
	C416.709991,459.808411 410.949799,468.221497 408.688995,478.666107 
	C405.149811,495.016663 401.990906,511.449432 398.479645,527.806335 
	C398.232697,528.956787 396.380219,530.638916 395.327972,530.600525 
	C387.446259,530.313354 379.578033,529.655457 371.531708,528.783264 
z"/>
<path fill="#7BB9F2" opacity="1.000000" stroke="none" 
	d="
M443.011200,336.376678 
	C436.625854,337.003815 429.950928,336.733551 423.476715,337.746307 
	C415.040436,339.065918 406.763367,341.403168 398.158783,343.595520 
	C397.899780,343.888550 397.948181,343.939484 397.612335,343.907715 
	C396.706818,344.209442 396.137146,344.542969 395.305725,344.835999 
	C394.701111,344.872314 394.358246,344.949127 393.737793,345.106567 
	C393.269623,345.504913 393.079010,345.822662 392.801331,346.217377 
	C392.714294,346.294312 392.747101,346.524353 392.376526,346.588501 
	C387.428955,348.462433 382.524536,349.721527 378.348297,352.205109 
	C371.274567,356.411804 364.549896,361.241272 357.911774,366.125885 
	C355.476166,367.918182 353.703094,370.610870 351.351685,373.061462 
	C347.045837,377.152985 343.016052,381.075928 338.658447,385.142944 
	C336.175873,389.472473 334.021149,393.657898 331.505890,397.876343 
	C328.053925,403.266479 324.962463,408.623627 321.622803,414.206421 
	C320.575897,416.290924 319.777252,418.149780 318.929749,420.379211 
	C317.253235,425.836060 315.625580,430.922302 313.939575,436.414368 
	C313.588074,443.547333 313.294891,450.274536 313.000671,457.460724 
	C311.973480,466.506866 315.279541,474.193756 318.003754,482.001587 
	C319.039764,486.674805 320.840240,490.686981 324.449890,494.273743 
	C329.039062,498.833954 332.141388,504.921844 336.843323,509.328247 
	C341.481354,513.674683 347.107391,517.112732 352.685577,520.267395 
	C357.826569,523.174805 363.479767,525.176453 368.938141,527.877075 
	C358.022980,526.688843 348.687622,521.737000 340.052734,515.066772 
	C313.289612,494.392853 306.173065,466.409882 311.751434,434.792389 
	C315.040619,416.149445 324.328888,399.757050 336.322723,384.828217 
	C350.638123,367.009705 368.447754,354.074951 389.089966,344.969086 
	C405.549957,337.708130 422.912170,334.177917 441.031891,335.328033 
	C441.637726,335.366486 442.218445,335.800354 443.011200,336.376678 
z"/>
<path fill="#7BB9F2" opacity="1.000000" stroke="none" 
	d="
M711.100708,398.722534 
	C711.558105,395.375244 712.555115,391.907349 713.059814,388.369263 
	C713.880066,382.619629 714.592041,376.837372 714.953552,371.044189 
	C715.334778,364.933899 715.251709,358.794647 715.640625,352.363037 
	C716.382935,355.279663 717.254395,358.500824 717.257812,361.722900 
	C717.270264,373.501404 716.940735,385.276093 712.804565,396.533234 
	C712.529724,397.281006 711.889526,397.894470 711.100708,398.722534 
z"/>
<path fill="#7BB9F2" opacity="1.000000" stroke="none" 
	d="
M577.027283,494.027374 
	C578.441711,488.199982 579.856201,482.372589 581.533813,476.307922 
	C581.745605,478.099457 582.005066,480.194305 581.590759,482.146118 
	C579.414978,492.397919 577.068787,502.613586 574.411987,512.581543 
	C574.689331,508.225830 575.336487,504.130371 575.997070,500.017639 
	C576.010498,500.000336 576.030457,499.961792 576.278076,499.754822 
	C576.650940,498.706146 576.776245,497.864410 576.930603,496.648682 
	C576.982178,495.525574 577.004700,494.776489 577.027283,494.027374 
z"/>
<path fill="#7BB9F2" opacity="1.000000" stroke="none" 
	d="
M582.469421,473.055695 
	C582.759521,469.428162 583.358704,465.628113 583.976318,460.995758 
	C584.664917,455.445648 585.335083,450.727875 586.320801,445.860046 
	C587.482666,445.277649 588.329041,444.845306 589.175415,444.412964 
	C589.175415,444.412994 589.237488,444.447754 589.218689,444.477051 
	C587.059448,453.965271 584.919006,463.424225 582.469421,473.055695 
z"/>
<path fill="#7BB9F2" opacity="1.000000" stroke="none" 
	d="
M602.321045,444.854675 
	C607.994446,444.507141 613.938721,444.469360 620.334534,444.458008 
	C631.292419,444.331787 641.798889,444.179138 652.777710,444.088287 
	C652.428406,444.612976 651.605591,445.481140 650.785095,445.478882 
	C634.720520,445.434723 618.656311,445.289215 602.321045,444.854675 
z"/>
<path fill="#7BB9F2" opacity="1.000000" stroke="none" 
	d="
M568.816284,541.622803 
	C568.667664,539.812134 568.830566,537.793579 569.015503,535.067871 
	C569.067444,533.918518 569.097290,533.476257 569.366089,532.781982 
	C569.737671,531.380188 569.870117,530.230286 570.024170,529.064453 
	C570.045654,529.048401 570.088684,529.016357 570.345825,528.732727 
	C571.724731,523.971375 572.846619,519.493591 573.968506,515.015869 
	C573.421143,519.160034 573.044312,523.335938 572.281433,527.440063 
	C571.409424,532.131592 570.194092,536.759399 568.816284,541.622803 
z"/>
<path fill="#5FA5F0" opacity="1.000000" stroke="none" 
	d="
M574.039185,514.717896 
	C572.846619,519.493591 571.724731,523.971375 570.314575,528.356018 
	C570.012512,527.507812 569.998779,526.752686 569.991089,525.566467 
	C571.348572,517.381653 572.659485,509.620239 574.119446,501.887024 
	C574.253357,501.177612 575.339600,500.648041 575.983643,500.034912 
	C575.336487,504.130371 574.689331,508.225830 574.100464,512.760681 
	C574.142517,513.606689 574.126221,514.013306 574.039185,514.717896 
z"/>
<path fill="#83BEF2" opacity="1.000000" stroke="none" 
	d="
M456.950317,340.615784 
	C453.414948,339.817841 449.835999,338.672424 446.125183,337.171326 
	C448.094238,336.301605 450.195160,335.787567 452.673798,335.416321 
	C454.336609,337.128876 455.621674,338.698608 456.950317,340.615784 
z"/>
<path fill="#7BB9F2" opacity="1.000000" stroke="none" 
	d="
M709.176025,404.303955 
	C709.231262,402.855408 709.605347,401.500183 710.256104,400.094666 
	C710.186829,401.495361 709.840881,402.946320 709.176025,404.303955 
z"/>
<path fill="#FEF9F1" opacity="1.000000" stroke="none" 
	d="
M116.080597,1003.715332 
	C114.399902,1009.027283 110.569038,1010.790833 105.759285,1011.010071 
	C103.219620,1011.125793 102.356995,1010.051025 104.114517,1007.150635 
	C105.341461,1005.331787 106.120560,1004.041992 106.275528,1003.785461 
	C104.057648,1001.770752 102.548935,1000.400269 101.040207,999.029785 
	C103.253174,995.157104 106.612999,994.017944 110.672943,995.435364 
	C114.253120,996.685364 116.502403,999.145630 116.080597,1003.715332 
z"/>
<path fill="#FEF9F1" opacity="1.000000" stroke="none" 
	d="
M86.221710,1010.339600 
	C87.589928,1005.929504 89.242455,1001.826111 90.940201,997.352234 
	C94.745201,994.045349 97.382545,994.190796 98.137497,998.083191 
	C97.292892,1000.569092 96.626984,1002.357849 95.951576,1004.172058 
	C98.324104,1004.887634 100.154320,1005.439575 101.984535,1005.991577 
	C100.618439,1008.714905 99.252350,1011.438293 98.307938,1013.320984 
	C96.231232,1012.459473 94.588600,1011.491821 92.820602,1011.119568 
	C90.773293,1010.688538 88.615715,1010.781067 86.221710,1010.339600 
z"/>
<path fill="#F4EFE7" opacity="1.000000" stroke="none" 
	d="
M134.961060,1010.076172 
	C130.842575,1010.218994 126.717911,1010.527649 122.610481,1010.374329 
	C121.713005,1010.340942 120.877045,1008.658630 120.026993,1007.373169 
	C121.224113,1005.264282 122.406990,1003.517822 124.048119,1001.094727 
	C127.396744,1002.096741 131.124008,1003.212036 134.931229,1005.113770 
	C134.994476,1007.292175 134.977768,1008.684143 134.961060,1010.076172 
z"/>
<path fill="#FEF9F1" opacity="1.000000" stroke="none" 
	d="
M174.911453,1008.991577 
	C172.734100,1011.300110 172.734100,1011.300110 170.968506,1005.881531 
	C170.219498,1007.900574 169.669083,1009.384277 169.118668,1010.868042 
	C168.692474,1010.889954 168.266296,1010.911926 167.840118,1010.933899 
	C167.563385,1009.565308 167.286667,1008.196777 166.993027,1006.421387 
	C167.540527,1004.412231 168.104935,1002.809875 169.056992,1000.106995 
	C170.142532,1001.875671 170.555588,1002.548584 171.135605,1003.493591 
	C171.930923,1002.800049 172.827133,1002.018494 173.941879,1001.046387 
	C176.148254,1003.484985 178.229263,1005.785034 180.433731,1008.221558 
	C180.780579,1007.188599 181.234192,1005.837708 181.687805,1004.486816 
	C182.127319,1004.517395 182.566818,1004.548035 183.006317,1004.578613 
	C183.006317,1006.434570 183.006317,1008.290588 183.002289,1010.572021 
	C180.788864,1010.550537 178.579483,1010.103577 176.188080,1008.989624 
	C175.537781,1007.743530 175.069504,1007.164368 174.601212,1006.585205 
	C174.704620,1007.387329 174.808029,1008.189453 174.911453,1008.991577 
z"/>
<path fill="#F4EFE7" opacity="1.000000" stroke="none" 
	d="
M165.985901,1005.710754 
	C165.953827,1007.590393 165.862000,1009.143738 165.770172,1010.697144 
	C165.344070,1010.826172 164.917969,1010.955200 164.491867,1011.084290 
	C163.808960,1010.081299 163.126053,1009.078369 163.213013,1009.206055 
	C160.449921,1009.837891 157.964722,1011.012512 155.761246,1010.617126 
	C154.856659,1010.454834 154.559555,1006.906799 153.982330,1004.459045 
	C155.410248,1003.360901 157.016174,1001.928223 158.237991,1002.203064 
	C160.904327,1002.802856 163.375336,1004.271118 165.985901,1005.710754 
z"/>
<path fill="#FEF9F1" opacity="1.000000" stroke="none" 
	d="
M135.056168,1010.357666 
	C134.977768,1008.684143 134.994476,1007.292175 135.013977,1005.487305 
	C137.190125,1004.872864 139.363464,1004.671143 141.793396,1004.744629 
	C142.023575,1007.375122 141.997192,1009.730408 141.964355,1012.525635 
	C137.361603,1015.952637 135.865601,1015.441345 135.056168,1010.357666 
z"/>
<path fill="#DBD8D1" opacity="1.000000" stroke="none" 
	d="
M102.280289,1006.024109 
	C100.154320,1005.439575 98.324104,1004.887634 95.951576,1004.172058 
	C96.626984,1002.357849 97.292892,1000.569092 98.034348,998.418274 
	C98.948616,998.209595 99.787323,998.363037 100.833130,998.773071 
	C102.548935,1000.400269 104.057648,1001.770752 106.275528,1003.785461 
	C106.120560,1004.041992 105.341461,1005.331787 104.279999,1006.810303 
	C103.523766,1006.684937 103.049896,1006.370789 102.280289,1006.024109 
z"/>
<path fill="#F4EFE7" opacity="1.000000" stroke="none" 
	d="
M149.673676,1004.854492 
	C149.881805,1006.612549 150.295624,1008.662109 149.457138,1009.702637 
	C148.697937,1010.644836 145.922195,1011.255066 145.195526,1010.640442 
	C143.976334,1009.609131 143.678391,1007.488770 143.002197,1005.412231 
	C145.119049,1004.900696 147.226486,1004.803650 149.673676,1004.854492 
z"/>
<path fill="#FEF9F1" opacity="1.000000" stroke="none" 
	d="
M199.757233,1010.871704 
	C198.035294,1009.603577 196.683884,1008.271118 195.332458,1006.938660 
	C196.345459,1005.993164 197.331528,1004.322571 198.378159,1004.283813 
	C199.718597,1004.234070 202.284805,1005.571899 202.246597,1006.181702 
	C202.147568,1007.761719 200.910492,1009.270325 199.757233,1010.871704 
z"/>
<path fill="#FEF9F1" opacity="1.000000" stroke="none" 
	d="
M208.814728,1007.301636 
	C204.242386,1004.586792 207.291199,1010.354004 203.945694,1010.325684 
	C204.303009,1008.283691 204.254700,1006.072754 205.198914,1004.433533 
	C205.557846,1003.810425 208.939819,1003.893311 209.629623,1004.733521 
	C210.722641,1006.064697 210.710175,1008.303406 211.165482,1010.158142 
	C210.686935,1010.271423 210.208389,1010.384705 209.729858,1010.497986 
	C209.458710,1009.550781 209.187576,1008.603638 208.814728,1007.301636 
z"/>
<path fill="#FEF9F1" opacity="1.000000" stroke="none" 
	d="
M190.137802,1010.634094 
	C188.501297,1010.819946 187.000931,1010.682495 185.235352,1010.278992 
	C185.444412,1009.235596 186.104523,1008.511414 186.346436,1007.667358 
	C186.656448,1006.585693 186.629944,1005.407593 186.748474,1004.271057 
	C187.846146,1005.031311 189.302414,1005.573608 189.935638,1006.615967 
	C190.512619,1007.565613 190.196442,1009.057739 190.137802,1010.634094 
M187.750519,1005.832764 
	C187.590500,1005.885803 187.430466,1005.938843 187.270416,1005.991943 
	C187.431931,1006.043945 187.593445,1006.095947 187.750519,1005.832764 
z"/>
<path fill="#E9E5DD" opacity="1.000000" stroke="none" 
	d="
M175.184036,1008.994568 
	C174.808029,1008.189453 174.704620,1007.387329 174.601212,1006.585205 
	C175.069504,1007.164368 175.537781,1007.743530 176.003937,1008.660156 
	C175.820099,1008.997559 175.638367,1008.997559 175.184036,1008.994568 
z"/>
<path fill="#68ABF1" opacity="1.000000" stroke="none" 
	d="
M586.005249,446.010071 
	C585.335083,450.727875 584.664917,455.445648 583.975586,460.590424 
	C583.020874,462.352386 582.085327,463.687378 580.639526,465.750549 
	C578.884827,465.032257 576.620605,463.807983 574.201721,463.174286 
	C568.330872,461.636261 562.363770,460.466553 556.490356,458.937378 
	C554.902893,458.524048 553.309082,457.586975 552.068237,456.493134 
	C548.400696,453.259857 544.943359,449.907867 540.952698,446.928711 
	C535.782471,443.069031 531.346924,440.294983 524.925903,441.941681 
	C524.778442,441.979523 524.500183,441.950562 524.449341,441.859680 
	C520.401428,434.623169 512.759399,439.162140 507.260895,436.645905 
	C506.270233,436.192566 504.704681,435.807983 503.924072,436.269806 
	C497.330414,440.170715 493.745972,434.823761 489.265503,431.878571 
	C487.568024,430.762787 485.378143,429.898834 483.385986,429.841034 
	C480.118073,429.746216 479.560791,428.008423 480.340607,425.648865 
	C481.235535,422.941040 480.614746,421.847504 477.448944,421.599609 
	C477.406799,418.469025 477.710846,415.739563 478.287781,412.744324 
	C479.408752,407.998718 480.256805,403.518951 481.462738,398.939453 
	C482.555969,395.557770 483.291290,392.275818 484.384583,389.069214 
	C486.678558,393.262054 487.753937,398.221558 494.046173,397.838654 
	C494.714966,397.797943 495.394440,399.607025 496.239624,400.368591 
	C497.304718,401.328339 498.477600,402.699738 499.721710,402.838654 
	C505.491486,403.482788 511.303986,403.736664 517.095459,404.201813 
	C517.858948,404.263123 519.085754,404.559723 519.257629,405.045044 
	C520.829895,409.483795 524.657593,410.500946 528.471619,412.235870 
	C532.937439,414.267273 536.930786,414.538239 541.366150,412.891357 
	C542.498657,412.470856 544.186401,412.142975 545.065491,412.679535 
	C549.485596,415.377319 553.714233,418.393585 559.135132,415.091888 
	C559.353394,414.958893 559.799255,415.104950 560.102051,415.219177 
	C566.105713,417.484070 572.094360,419.298767 578.746765,418.363770 
	C580.331177,418.141052 582.938782,420.064178 583.906311,421.694397 
	C585.720032,424.750458 586.626099,428.336029 588.022827,431.653687 
	C588.523071,432.842072 589.350403,433.892731 590.028503,435.006226 
	C589.672119,437.394806 589.315796,439.783356 588.578308,442.587891 
	C587.466553,444.005890 586.735901,445.007996 586.005249,446.010071 
z"/>
<path fill="#559EEF" opacity="1.000000" stroke="none" 
	d="
M575.997070,500.017639 
	C575.339600,500.648041 574.253357,501.177612 574.119446,501.887024 
	C572.659485,509.620239 571.348572,517.381653 569.629272,525.560181 
	C567.186646,524.461426 564.928894,523.129700 563.082031,521.367310 
	C560.593018,518.992188 559.038635,518.628113 556.184204,521.445129 
	C553.906921,523.692444 549.230469,526.251221 547.035339,525.322815 
	C540.556030,522.582520 534.340393,518.707214 528.923523,514.193542 
	C526.419250,512.106812 524.656799,509.880646 521.164062,509.975983 
	C519.345337,510.025635 516.878113,510.547485 515.807495,509.603912 
	C511.049683,505.410248 506.415802,508.341583 501.724854,509.238464 
	C500.914368,509.393463 499.983948,510.103790 499.363403,509.873077 
	C495.938477,508.599823 490.071808,511.231750 489.314972,506.117615 
	C488.315918,499.366394 482.829346,497.839417 478.787323,494.582031 
	C478.002014,493.949158 475.837952,494.345764 474.689514,494.968140 
	C470.685455,497.138062 466.847961,499.615417 462.947144,501.975891 
	C464.944794,491.905884 466.942444,481.835876 469.335632,471.368347 
	C470.457062,470.349854 471.182922,469.728882 471.908783,469.107910 
	C471.257050,468.415497 470.605286,467.723083 469.953552,467.030670 
	C469.953461,466.572388 469.953369,466.114105 469.960571,465.311432 
	C472.480743,466.074524 474.908020,467.599670 477.537445,468.138672 
	C479.215607,468.482635 481.800385,467.957489 482.926666,466.799133 
	C486.911011,462.701233 488.497101,462.310089 493.055145,465.669189 
	C494.510620,466.741791 495.814728,468.087067 497.397125,468.901245 
	C498.977295,469.714203 500.819305,470.018311 502.739014,470.604218 
	C502.583466,472.263153 502.438293,473.811707 502.265656,475.653381 
	C512.146118,474.064972 519.272888,479.912537 527.109253,483.671570 
	C528.130249,484.161316 529.181335,484.838837 530.257446,484.921417 
	C536.110046,485.370270 541.996643,485.469910 547.820435,486.135773 
	C549.301208,486.305023 551.526367,487.903778 551.795593,489.184845 
	C552.501038,492.542053 554.421082,492.978668 557.203796,492.809052 
	C562.411865,492.491547 567.625000,492.170654 572.839233,492.105408 
	C574.006226,492.090759 575.186401,493.124573 576.693848,493.851532 
	C577.004700,494.776489 576.982178,495.525574 576.694702,496.863953 
	C576.296631,498.289429 576.163574,499.125610 576.030457,499.961792 
	C576.030457,499.961792 576.010498,500.000336 575.997070,500.017639 
z"/>
<path fill="#3B8AEB" opacity="1.000000" stroke="none" 
	d="
M478.014832,413.010132 
	C477.710846,415.739563 477.406799,418.469025 477.057190,421.598755 
	C476.675323,422.772217 476.339081,423.545349 475.573669,424.658630 
	C471.872894,425.200439 468.470367,426.076111 465.355499,425.471039 
	C457.598083,423.964142 449.981781,421.740936 442.287140,419.895691 
	C439.572876,419.244781 436.622253,419.283875 434.085175,418.254578 
	C429.539307,416.410187 425.380615,413.563812 420.782898,411.904327 
	C409.787903,407.935883 398.662262,404.318359 387.525238,400.759888 
	C383.177307,399.370636 378.632721,398.609833 374.221466,397.402832 
	C367.077240,395.448120 359.675507,394.019104 352.980072,391.029663 
	C350.004669,389.701141 347.530090,387.974182 344.042786,387.834503 
	C342.322174,387.765564 340.669617,385.997864 338.986267,384.998840 
	C343.016052,381.075928 347.045837,377.152985 351.814087,373.094238 
	C356.471558,374.014893 360.359222,375.214722 364.320129,376.078979 
	C367.108002,376.687256 370.020599,376.705902 372.830536,377.236572 
	C375.126007,377.670013 377.985382,377.801544 379.495605,379.229431 
	C385.091003,384.519989 392.103149,385.686951 399.135437,386.983917 
	C404.431458,387.960663 409.977203,388.133698 415.013092,389.840759 
	C422.399567,392.344604 429.320984,396.198822 436.662476,398.866913 
	C439.858215,400.028320 443.605927,399.664154 447.100800,400.014252 
	C447.916962,400.096039 449.057556,399.965027 449.485138,400.439728 
	C454.669342,406.195160 463.745850,401.998810 469.187134,408.420410 
	C470.610626,410.100342 475.795715,409.754639 478.014832,413.010132 
z"/>
<path fill="#4592EE" opacity="1.000000" stroke="none" 
	d="
M338.658447,385.142944 
	C340.669617,385.997864 342.322174,387.765564 344.042786,387.834503 
	C347.530090,387.974182 350.004669,389.701141 352.980072,391.029663 
	C359.675507,394.019104 367.077240,395.448120 374.221466,397.402832 
	C378.632721,398.609833 383.177307,399.370636 387.525238,400.759888 
	C398.662262,404.318359 409.787903,407.935883 420.782898,411.904327 
	C425.380615,413.563812 429.539307,416.410187 434.085175,418.254578 
	C436.622253,419.283875 439.572876,419.244781 442.287140,419.895691 
	C449.981781,421.740936 457.598083,423.964142 465.355499,425.471039 
	C468.470367,426.076111 471.872894,425.200439 475.563354,424.995117 
	C474.691132,430.744812 473.399994,436.498169 472.088379,442.648621 
	C471.605377,443.048676 471.142853,443.051575 470.281006,442.688721 
	C466.478821,440.548767 463.126617,437.375702 459.664062,437.250366 
	C446.883270,436.787598 434.893982,433.277527 422.901703,429.480682 
	C417.218109,427.681213 411.495422,425.987946 405.881073,423.991577 
	C398.657471,421.423035 391.503662,418.652405 384.368866,415.844147 
	C382.699005,415.186859 381.307892,413.421509 379.649811,413.198730 
	C368.437500,411.692535 357.663635,408.480347 346.735474,405.760223 
	C340.751160,404.270691 336.360260,401.337799 331.866394,397.843353 
	C334.021149,393.657898 336.175873,389.472473 338.658447,385.142944 
z"/>
<path fill="#3B8AEB" opacity="1.000000" stroke="none" 
	d="
M635.024414,443.021027 
	C630.690369,443.035126 626.356262,443.049225 621.571899,443.048218 
	C621.121582,443.033081 621.039429,443.024811 621.014771,442.590820 
	C621.192078,440.684875 621.369263,439.209106 621.600220,437.741730 
	C622.677429,430.896057 624.862793,424.013336 624.618103,417.217102 
	C624.172974,404.855713 622.014832,392.566010 621.117249,380.206757 
	C620.661438,373.928986 621.137573,367.684845 613.826660,364.870453 
	C618.992126,359.906830 624.157593,354.943207 629.712463,350.349792 
	C630.400879,352.339417 630.823914,353.947052 630.978821,355.580170 
	C631.992004,366.260864 632.816284,376.961151 633.966492,387.626587 
	C634.757263,394.958771 636.776917,402.240997 636.812988,409.552643 
	C636.867981,420.705566 635.682922,431.864594 635.024414,443.021027 
z"/>
<path fill="#4E98EE" opacity="1.000000" stroke="none" 
	d="
M647.613586,340.949585 
	C653.472717,347.542877 651.317505,355.512817 652.134338,363.033600 
	C653.469666,375.327484 655.624817,387.532043 657.410950,399.777618 
	C657.673157,401.575073 658.015686,403.396545 657.967957,405.197540 
	C657.705750,415.081696 657.374390,424.964508 656.981812,434.844452 
	C656.785706,439.779999 653.901489,441.977448 647.433899,441.581726 
	C646.816467,438.512878 646.520142,435.882935 646.462952,433.247772 
	C646.232910,422.654816 646.446106,412.037933 645.807251,401.471527 
	C644.839294,385.461365 643.417603,369.474487 641.891541,353.506073 
	C641.610596,350.566315 639.919739,347.761322 638.879700,344.894104 
	C641.667114,343.588715 644.454468,342.283295 647.613586,340.949585 
z"/>
<path fill="#2F81EA" opacity="1.000000" stroke="none" 
	d="
M613.654785,365.158966 
	C621.137573,367.684845 620.661438,373.928986 621.117249,380.206757 
	C622.014832,392.566010 624.172974,404.855713 624.618103,417.217102 
	C624.862793,424.013336 622.677429,430.896057 621.600220,437.741730 
	C621.369263,439.209106 621.192078,440.684875 620.974365,442.582764 
	C611.000000,443.037659 610.878662,443.035736 611.036865,432.995972 
	C611.172791,424.375275 612.226196,415.726532 611.752014,407.152252 
	C611.375793,400.348907 609.570007,393.567444 607.788818,386.940277 
	C607.357788,385.336487 604.519592,384.379669 602.464233,383.056091 
	C602.140137,382.986847 601.967529,382.996979 601.939331,382.758850 
	C601.911133,382.520691 601.912537,382.034180 601.912537,382.034180 
	C602.280945,381.251526 602.649353,380.468903 603.062317,379.362244 
	C606.565552,374.507996 610.024231,369.977753 613.654785,365.158966 
z"/>
<path fill="#4592EE" opacity="1.000000" stroke="none" 
	d="
M638.524902,344.955139 
	C639.919739,347.761322 641.610596,350.566315 641.891541,353.506073 
	C643.417603,369.474487 644.839294,385.461365 645.807251,401.471527 
	C646.446106,412.037933 646.232910,422.654816 646.462952,433.247772 
	C646.520142,435.882935 646.816467,438.512878 647.007568,441.580566 
	C643.315063,442.353363 639.617920,442.690826 635.472595,443.024658 
	C635.682922,431.864594 636.867981,420.705566 636.812988,409.552643 
	C636.776917,402.240997 634.757263,394.958771 633.966492,387.626587 
	C632.816284,376.961151 631.992004,366.260864 630.978821,355.580170 
	C630.823914,353.947052 630.400879,352.339417 630.059326,350.292816 
	C632.734619,348.249146 635.452393,346.632660 638.524902,344.955139 
z"/>
<path fill="#75B6F3" opacity="1.000000" stroke="none" 
	d="
M600.696533,386.070740 
	C599.305725,392.525726 597.568176,399.023834 595.197876,405.803650 
	C591.976074,405.789185 588.181274,406.447418 587.039856,405.005371 
	C584.359924,401.619934 581.354187,400.619751 577.520386,401.022217 
	C568.443909,401.975037 561.407471,398.048615 556.748474,390.864349 
	C552.501038,384.314850 546.091919,385.393555 540.344482,384.993866 
	C536.941223,384.757172 533.244934,386.949219 529.873108,388.475037 
	C525.077637,390.644989 518.880432,388.602112 515.166931,383.386169 
	C513.738342,381.379456 512.686584,377.953949 509.203278,379.982330 
	C503.395935,383.363983 497.781708,386.599213 491.948151,380.161285 
	C491.860809,380.064880 491.623444,380.118164 491.466064,380.069366 
	C486.608154,378.564178 485.258331,375.323730 487.905762,369.746918 
	C485.022095,368.178375 482.091248,366.584198 479.160431,364.990021 
	C476.183624,360.212311 473.206818,355.434631 470.066467,350.362305 
	C476.507324,349.241852 482.984497,348.049835 489.304810,352.008484 
	C493.626770,354.715454 497.577362,357.675140 504.113861,355.441376 
	C510.344757,353.312042 517.114258,355.804840 520.347900,363.082947 
	C520.637512,363.734894 521.546021,364.366089 522.274719,364.530670 
	C533.501404,367.066803 544.701782,369.763824 556.014893,371.844055 
	C559.154480,372.421356 561.126404,373.275970 562.605225,376.090851 
	C566.583557,383.663300 570.358765,383.683441 575.374756,376.786591 
	C576.422791,375.345581 578.981995,374.798676 580.958191,374.395447 
	C581.399292,374.305450 582.771851,376.497833 582.932129,377.740448 
	C583.419250,381.518005 586.055542,381.194519 588.525085,380.872101 
	C596.694092,379.805634 596.700806,379.768707 595.116150,387.204834 
	C595.033813,387.591064 595.435364,388.080414 595.807861,389.013000 
	C597.428223,387.978729 598.889038,387.046295 600.696533,386.070740 
z"/>
<path fill="#83BEF2" opacity="1.000000" stroke="none" 
	d="
M601.768066,382.112762 
	C601.912537,382.034180 601.911133,382.520691 601.852905,382.756836 
	C601.458069,382.760590 601.401062,382.493378 601.768066,382.112762 
z"/>
<path fill="#75B6F3" opacity="1.000000" stroke="none" 
	d="
M601.619324,385.162476 
	C601.872009,385.391815 601.757080,385.663879 601.237183,385.947449 
	C601.083069,385.744263 601.222900,385.493011 601.619324,385.162476 
z"/>
<path fill="#2F81EA" opacity="1.000000" stroke="none" 
	d="
M541.775513,627.798706 
	C542.052429,628.034424 542.011780,628.520325 541.776245,628.882202 
	C541.270752,629.460510 541.106201,629.739258 541.047058,630.080322 
	C534.605835,638.000549 528.164612,645.920776 521.349854,653.631226 
	C520.307739,651.590820 519.504333,649.796631 518.998413,647.922119 
	C517.899963,643.852539 515.202087,642.778687 511.415314,645.018738 
	C508.702393,646.623657 506.684784,646.471497 506.006531,642.871094 
	C505.837189,641.972168 505.508209,641.103271 505.486237,641.027405 
	C497.495789,639.740906 491.743011,635.639954 485.944427,631.200745 
	C484.723114,632.155212 483.501129,633.110229 482.117706,634.191406 
	C480.008820,632.465637 477.752136,631.187256 476.270081,629.300415 
	C471.639923,623.405823 471.753326,623.316772 465.451447,626.767700 
	C464.993011,625.979370 464.135651,625.182434 464.127319,624.376709 
	C464.085205,620.298706 462.249817,619.575500 458.658844,620.809265 
	C457.160400,621.324036 455.360901,621.000488 453.698578,620.992981 
	C448.741577,620.970520 443.608154,618.209473 438.899139,621.965820 
	C440.052032,615.143372 441.204926,608.320862 442.896667,601.241455 
	C443.618073,600.988770 443.800629,600.993164 443.983154,600.997559 
	C446.341339,599.307800 448.622498,597.492798 451.087463,595.976685 
	C452.498505,595.108887 454.590424,593.819763 455.713379,594.292847 
	C459.357605,595.828186 465.408325,594.376587 465.402649,601.236938 
	C465.402161,601.812256 467.074951,602.640564 468.089539,602.922546 
	C473.038300,604.298035 478.001587,605.645996 483.015808,606.748840 
	C484.926727,607.169189 487.161957,607.448792 488.950897,606.869995 
	C499.329773,603.511963 505.231079,610.140137 510.767883,616.785339 
	C515.944519,622.998413 518.096802,624.971375 525.262817,620.940918 
	C526.186340,620.421448 527.501526,620.217163 528.556396,620.379639 
	C532.781494,621.030151 536.975464,621.882751 541.498657,622.719360 
	C541.498657,624.157349 541.498657,625.860168 541.775513,627.798706 
z"/>
<path fill="#3D8CED" opacity="1.000000" stroke="none" 
	d="
M448.696686,571.009033 
	C449.727509,565.566956 451.116180,560.102356 452.955322,554.163330 
	C454.785248,553.125732 456.164673,552.562622 457.687500,551.940918 
	C456.807190,550.685486 455.884186,549.369202 455.122803,548.283386 
	C457.790710,547.231201 459.930237,546.387390 462.069794,545.543579 
	C466.473358,547.854614 471.262756,549.155151 476.050354,550.462097 
	C477.374664,550.823486 479.415527,550.787964 479.905792,551.638672 
	C486.118896,562.420410 500.208984,560.386658 507.746826,568.899597 
	C507.904358,569.077515 508.387970,568.964905 508.719208,568.991028 
	C516.540833,569.608582 523.226074,572.867981 529.290222,577.684326 
	C530.095520,578.323914 531.331787,578.587158 532.401489,578.694214 
	C534.958130,578.949890 537.539246,579.164124 540.101013,579.085327 
	C541.537903,579.041199 543.559082,578.841431 544.269958,577.911438 
	C546.461792,575.044373 548.006287,576.371338 549.997070,577.990112 
	C550.937012,578.754517 552.378357,579.300171 553.568604,579.258728 
	C555.080811,579.205994 556.568726,578.456665 558.067139,578.007629 
	C555.934998,587.197937 553.802917,596.388245 551.088867,605.825867 
	C550.369812,606.742249 550.232727,607.411316 550.095581,608.080383 
	C549.623962,609.624023 549.152344,611.167725 548.374634,612.898804 
	C548.902100,608.016602 545.419067,605.046875 541.797180,603.671387 
	C538.566162,602.444275 534.500977,603.413513 531.367432,603.413513 
	C530.108154,599.752319 529.248840,595.957031 527.415894,592.711670 
	C526.863159,591.732971 523.539856,591.912903 521.613647,592.264099 
	C520.406555,592.484131 519.549805,594.200134 518.342896,594.922424 
	C513.465393,597.841675 509.537201,597.320496 506.340118,592.054138 
	C505.255157,590.266907 502.715118,589.343262 500.801636,588.083252 
	C497.785828,586.097351 494.464417,584.471924 491.779694,582.115845 
	C489.084198,579.750305 487.163391,577.403137 482.863586,579.328308 
	C479.748230,580.723145 469.059204,574.867004 467.527039,571.817200 
	C467.380157,571.524902 467.240295,571.212463 467.184265,570.894043 
	C466.881165,569.170593 466.970520,566.134583 466.258789,565.935913 
	C462.662598,564.931885 458.865234,564.389404 455.127228,564.323669 
	C454.117828,564.305969 453.079498,566.527344 452.035583,567.704163 
	C451.054901,568.809753 450.049225,569.893311 448.696686,571.009033 
z"/>
<path fill="#2F81EA" opacity="1.000000" stroke="none" 
	d="
M446.278809,586.972290 
	C446.402618,586.356689 446.858673,585.687500 447.639648,584.951965 
	C447.513336,585.563354 447.062195,586.241089 446.278809,586.972290 
z"/>
<path fill="#277AE8" opacity="1.000000" stroke="none" 
	d="
M443.986267,600.587769 
	C443.800629,600.993164 443.618073,600.988770 443.160706,600.969482 
	C443.070648,599.765015 443.255432,598.575439 443.704834,597.132324 
	C443.976105,597.978516 443.982758,599.078186 443.986267,600.587769 
z"/>
<path fill="#75B6F3" opacity="1.000000" stroke="none" 
	d="
M318.354034,482.041321 
	C315.279541,474.193756 311.973480,466.506866 313.385895,457.459778 
	C315.436462,457.857025 317.157074,458.622314 318.749420,459.597076 
	C320.379333,460.594818 321.755188,462.436890 323.468903,462.781128 
	C327.330139,463.556793 331.368622,463.407349 335.268036,464.044220 
	C343.910187,465.455750 353.270447,464.722046 359.987305,472.228760 
	C360.957916,473.313477 362.964508,473.474152 364.494476,474.055023 
	C371.484558,476.708832 378.460754,479.400421 385.473450,481.993134 
	C388.461517,483.097931 391.507263,484.699890 394.562347,484.783905 
	C397.540070,484.865814 401.520294,485.524628 403.101166,481.266998 
	C403.207428,480.980804 404.340118,481.075714 404.995422,480.993408 
	C403.847809,487.613068 402.695404,494.231934 401.554657,500.852814 
	C401.022705,503.940186 400.513397,507.031494 399.990784,510.549255 
	C394.406219,508.488373 388.127991,507.679260 383.579803,502.699982 
	C381.680237,500.620422 378.131409,499.800293 375.173370,498.984558 
	C368.393677,497.114990 361.481750,495.726196 354.696045,493.876251 
	C352.168701,493.187225 349.221344,492.341919 347.541443,490.555908 
	C342.249237,484.929382 335.561676,486.337036 329.799866,487.596893 
	C324.763458,488.698120 322.356598,488.035034 320.625183,483.493286 
	C320.387268,482.869141 319.364014,482.544403 318.354034,482.041321 
z"/>
<path fill="#6FB0F1" opacity="1.000000" stroke="none" 
	d="
M479.154907,365.361206 
	C482.091248,366.584198 485.022095,368.178375 487.905762,369.746918 
	C485.258331,375.323730 486.608154,378.564178 491.466064,380.069366 
	C491.623444,380.118164 491.860809,380.064880 491.948151,380.161285 
	C497.781708,386.599213 503.395935,383.363983 509.203278,379.982330 
	C512.686584,377.953949 513.738342,381.379456 515.166931,383.386169 
	C518.880432,388.602112 525.077637,390.644989 529.873108,388.475037 
	C533.244934,386.949219 536.941223,384.757172 540.344482,384.993866 
	C546.091919,385.393555 552.501038,384.314850 556.748474,390.864349 
	C561.407471,398.048615 568.443909,401.975037 577.520386,401.022217 
	C581.354187,400.619751 584.359924,401.619934 587.039856,405.005371 
	C588.181274,406.447418 591.976074,405.789185 594.996216,406.140381 
	C593.782532,414.213989 592.121277,422.229370 590.509766,430.254700 
	C590.253052,431.532959 590.219177,432.855988 590.055420,434.582275 
	C589.350403,433.892731 588.523071,432.842072 588.022827,431.653687 
	C586.626099,428.336029 585.720032,424.750458 583.906311,421.694397 
	C582.938782,420.064178 580.331177,418.141052 578.746765,418.363770 
	C572.094360,419.298767 566.105713,417.484070 560.102051,415.219177 
	C559.799255,415.104950 559.353394,414.958893 559.135132,415.091888 
	C553.714233,418.393585 549.485596,415.377319 545.065491,412.679535 
	C544.186401,412.142975 542.498657,412.470856 541.366150,412.891357 
	C536.930786,414.538239 532.937439,414.267273 528.471619,412.235870 
	C524.657593,410.500946 520.829895,409.483795 519.257629,405.045044 
	C519.085754,404.559723 517.858948,404.263123 517.095459,404.201813 
	C511.303986,403.736664 505.491486,403.482788 499.721710,402.838654 
	C498.477600,402.699738 497.304718,401.328339 496.239624,400.368591 
	C495.394440,399.607025 494.714966,397.797943 494.046173,397.838654 
	C487.753937,398.221558 486.678558,393.262054 484.358826,388.780884 
	C483.686523,387.947113 483.398010,387.476959 483.101685,386.756104 
	C483.075500,386.339325 483.057098,386.173157 483.058228,385.554535 
	C482.782013,381.728882 482.486206,378.355621 482.190399,374.982391 
	C481.176727,371.899078 480.163055,368.815735 479.154907,365.361206 
z"/>
<path fill="#277AE8" opacity="1.000000" stroke="none" 
	d="
M481.786133,374.949219 
	C482.486206,378.355621 482.782013,381.728882 482.665283,385.559570 
	C479.697266,386.567230 476.051025,388.458618 474.782135,387.426727 
	C470.207153,383.706116 465.426910,385.316681 460.949738,384.878296 
	C458.654968,382.756348 456.136902,381.148834 453.394440,380.170135 
	C450.613708,379.177826 447.542511,379.014679 444.731873,378.085266 
	C443.052734,377.529999 441.723083,375.565369 440.076172,375.323151 
	C430.373627,373.895935 421.016602,370.265198 410.970764,370.970306 
	C398.520020,371.844177 393.109283,361.429626 385.457977,354.655182 
	C385.222168,354.446411 385.428101,353.738708 385.428101,353.133728 
	C386.981384,352.206665 388.584808,350.424988 390.025055,350.548401 
	C393.971832,350.886627 392.909027,348.557373 392.747101,346.524353 
	C392.747101,346.524353 392.714294,346.294312 393.029694,346.071564 
	C393.568542,345.574524 393.791962,345.300232 394.015381,345.025940 
	C394.358246,344.949127 394.701111,344.872314 395.658142,344.852478 
	C396.830963,344.586151 397.389557,344.262817 397.948181,343.939484 
	C397.948181,343.939484 397.899780,343.888550 397.894257,343.852966 
	C398.795990,344.150635 400.262482,344.241150 400.528046,344.852936 
	C405.943939,357.331177 418.281036,359.364349 428.865936,360.373413 
	C438.983154,361.337891 447.084106,365.999115 456.161041,368.726410 
	C461.322998,370.277405 466.539154,371.660645 471.767975,372.971558 
	C474.936005,373.765778 478.174835,374.277435 481.786133,374.949219 
z"/>
<path fill="#68ABF1" opacity="1.000000" stroke="none" 
	d="
M663.973755,337.447021 
	C668.708862,337.365845 673.438171,337.671753 678.583069,338.418213 
	C678.666016,344.309509 677.965698,349.770142 678.111572,355.208069 
	C678.239197,359.966705 679.594482,364.680542 679.928345,369.447693 
	C681.285706,388.824799 682.877686,408.156342 688.002441,427.000031 
	C686.163452,428.919434 684.324463,430.838837 682.004272,433.000580 
	C681.298462,433.400116 681.144653,433.609375 681.061646,433.870667 
	C680.244690,434.167664 679.427734,434.464661 678.098999,434.988525 
	C677.320679,435.391602 677.134338,435.630341 677.028198,435.931641 
	C675.268555,436.597137 673.508911,437.262604 671.396606,437.973816 
	C670.500427,436.097412 669.072021,433.899750 669.569580,432.301697 
	C671.518005,426.043793 671.706421,419.979645 669.471069,413.814911 
	C669.140869,412.904358 669.115173,411.873596 669.012512,410.891754 
	C667.644348,397.803680 666.295715,384.713562 664.924927,371.625732 
	C663.968384,362.492462 662.829102,353.373840 662.132874,344.221191 
	C661.975342,342.150696 663.316650,339.966125 663.973755,337.447021 
z"/>
<path fill="#75B6F3" opacity="1.000000" stroke="none" 
	d="
M688.319580,426.859375 
	C682.877686,408.156342 681.285706,388.824799 679.928345,369.447693 
	C679.594482,364.680542 678.239197,359.966705 678.111572,355.208069 
	C677.965698,349.770142 678.666016,344.309509 679.004150,338.430267 
	C680.293945,337.684601 681.562195,337.250031 682.865417,337.073578 
	C686.037231,336.644073 687.325623,337.348816 688.252686,341.241577 
	C690.804688,351.957825 688.457275,363.029633 692.339783,373.817383 
	C695.118896,381.539154 694.108643,390.591064 695.048401,399.020569 
	C695.661560,404.520355 697.547913,410.004730 697.303894,415.425781 
	C697.158691,418.650391 694.132202,421.835754 692.097595,424.832642 
	C691.441467,425.799103 689.817749,426.108673 688.319580,426.859375 
z"/>
<path fill="#5FA5F0" opacity="1.000000" stroke="none" 
	d="
M681.248901,433.800903 
	C681.144653,433.609375 681.298462,433.400116 681.703430,433.166138 
	C681.816650,433.360535 681.667419,433.574493 681.248901,433.800903 
z"/>
<path fill="#5FA5F0" opacity="1.000000" stroke="none" 
	d="
M677.239990,435.841980 
	C677.134338,435.630341 677.320679,435.391602 677.800293,435.126465 
	C677.902832,435.335968 677.715576,435.574219 677.239990,435.841980 
z"/>
<path fill="#4E98EE" opacity="1.000000" stroke="none" 
	d="
M462.939514,502.341553 
	C466.847961,499.615417 470.685455,497.138062 474.689514,494.968140 
	C475.837952,494.345764 478.002014,493.949158 478.787323,494.582031 
	C482.829346,497.839417 488.315918,499.366394 489.314972,506.117615 
	C490.071808,511.231750 495.938477,508.599823 499.363403,509.873077 
	C499.983948,510.103790 500.914368,509.393463 501.724854,509.238464 
	C506.415802,508.341583 511.049683,505.410248 515.807495,509.603912 
	C516.878113,510.547485 519.345337,510.025635 521.164062,509.975983 
	C524.656799,509.880646 526.419250,512.106812 528.923523,514.193542 
	C534.340393,518.707214 540.556030,522.582520 547.035339,525.322815 
	C549.230469,526.251221 553.906921,523.692444 556.184204,521.445129 
	C559.038635,518.628113 560.593018,518.992188 563.082031,521.367310 
	C564.928894,523.129700 567.186646,524.461426 569.623230,525.991272 
	C569.998779,526.752686 570.012512,527.507812 570.057495,528.639648 
	C570.088684,529.016357 570.045654,529.048401 569.750854,529.286255 
	C569.346375,530.694031 569.236694,531.864014 569.127075,533.033997 
	C569.097290,533.476257 569.067444,533.918518 569.008789,534.692627 
	C567.364441,540.439819 565.660217,545.830811 564.171204,551.280640 
	C563.440369,553.955322 563.108704,556.739014 561.973328,559.704712 
	C558.720825,557.267090 556.180298,554.501282 553.423279,551.971436 
	C552.111328,550.767578 550.071655,548.910645 548.904297,549.244934 
	C543.754028,550.719604 539.195068,549.539734 534.401489,547.826233 
	C532.266846,547.063171 529.581909,547.998840 527.202881,547.706726 
	C525.479370,547.495117 523.695251,546.773254 522.216919,545.838257 
	C520.605347,544.819092 519.328979,543.276062 517.880127,541.991211 
	C516.960693,541.175842 515.659668,540.599182 515.105042,539.597168 
	C512.718689,535.285645 504.681274,531.900452 500.235626,533.982910 
	C495.628845,536.140930 492.838013,534.052124 489.893402,530.928650 
	C488.326630,529.266785 486.284302,527.545715 484.166931,527.021423 
	C480.366302,526.080383 476.219574,526.493713 472.451904,525.474365 
	C467.822693,524.221985 463.940521,523.850586 460.736053,528.259705 
	C460.028015,529.233887 458.243713,529.425842 456.955017,529.978027 
	C457.937897,525.239075 458.920715,520.500183 460.296204,515.368286 
	C461.323883,514.619507 462.475616,514.309021 462.511383,513.900635 
	C462.773254,510.911316 462.811310,507.902374 462.919952,504.899597 
	C462.923920,504.168823 462.927917,503.438019 462.939514,502.341553 
z"/>
<path fill="#4592EE" opacity="1.000000" stroke="none" 
	d="
M456.937683,530.348267 
	C458.243713,529.425842 460.028015,529.233887 460.736053,528.259705 
	C463.940521,523.850586 467.822693,524.221985 472.451904,525.474365 
	C476.219574,526.493713 480.366302,526.080383 484.166931,527.021423 
	C486.284302,527.545715 488.326630,529.266785 489.893402,530.928650 
	C492.838013,534.052124 495.628845,536.140930 500.235626,533.982910 
	C504.681274,531.900452 512.718689,535.285645 515.105042,539.597168 
	C515.659668,540.599182 516.960693,541.175842 517.880127,541.991211 
	C519.328979,543.276062 520.605347,544.819092 522.216919,545.838257 
	C523.695251,546.773254 525.479370,547.495117 527.202881,547.706726 
	C529.581909,547.998840 532.266846,547.063171 534.401489,547.826233 
	C539.195068,549.539734 543.754028,550.719604 548.904297,549.244934 
	C550.071655,548.910645 552.111328,550.767578 553.423279,551.971436 
	C556.180298,554.501282 558.720825,557.267090 561.700745,559.975769 
	C560.941345,565.887024 559.831421,571.758545 558.394287,577.818848 
	C556.568726,578.456665 555.080811,579.205994 553.568604,579.258728 
	C552.378357,579.300171 550.937012,578.754517 549.997070,577.990112 
	C548.006287,576.371338 546.461792,575.044373 544.269958,577.911438 
	C543.559082,578.841431 541.537903,579.041199 540.101013,579.085327 
	C537.539246,579.164124 534.958130,578.949890 532.401489,578.694214 
	C531.331787,578.587158 530.095520,578.323914 529.290222,577.684326 
	C523.226074,572.867981 516.540833,569.608582 508.719208,568.991028 
	C508.387970,568.964905 507.904358,569.077515 507.746826,568.899597 
	C500.208984,560.386658 486.118896,562.420410 479.905792,551.638672 
	C479.415527,550.787964 477.374664,550.823486 476.050354,550.462097 
	C471.262756,549.155151 466.473358,547.854614 462.069794,545.543579 
	C459.930237,546.387390 457.790710,547.231201 455.122803,548.283386 
	C455.884186,549.369202 456.807190,550.685486 457.687500,551.940918 
	C456.164673,552.562622 454.785248,553.125732 453.147827,553.850037 
	C453.693024,548.493347 454.496185,542.975403 455.918121,537.159424 
	C456.640167,535.553772 456.743469,534.246216 456.846741,532.938660 
	C456.871277,532.198608 456.895813,531.458496 456.937683,530.348267 
z"/>
<path fill="#277AE8" opacity="1.000000" stroke="none" 
	d="
M438.893555,622.281982 
	C443.608154,618.209473 448.741577,620.970520 453.698578,620.992981 
	C455.360901,621.000488 457.160400,621.324036 458.658844,620.809265 
	C462.249817,619.575500 464.085205,620.298706 464.127319,624.376709 
	C464.135651,625.182434 464.993011,625.979370 465.451447,626.767700 
	C471.753326,623.316772 471.639923,623.405823 476.270081,629.300415 
	C477.752136,631.187256 480.008820,632.465637 482.117706,634.191406 
	C483.501129,633.110229 484.723114,632.155212 485.944427,631.200745 
	C491.743011,635.639954 497.495789,639.740906 505.486237,641.027405 
	C505.508209,641.103271 505.837189,641.972168 506.006531,642.871094 
	C506.684784,646.471497 508.702393,646.623657 511.415314,645.018738 
	C515.202087,642.778687 517.899963,643.852539 518.998413,647.922119 
	C519.504333,649.796631 520.307739,651.590820 521.065308,653.807983 
	C519.663696,655.763855 518.173035,657.333313 516.214600,658.773682 
	C510.790466,655.820618 512.385010,659.991333 512.052612,662.104553 
	C512.052612,662.104553 511.573975,662.197937 511.161407,661.940918 
	C510.207092,662.190186 509.665344,662.696472 509.123566,663.202759 
	C508.360626,664.398010 507.597687,665.593323 506.267395,667.008301 
	C505.428772,667.507935 505.157440,667.787781 504.886139,668.067688 
	C502.940674,669.095581 500.995239,670.123474 498.269287,671.063538 
	C494.592194,670.326538 491.655609,669.009827 488.808075,669.180298 
	C484.211487,669.455444 481.841156,667.653198 480.178192,663.572266 
	C478.483032,659.412231 474.771729,658.164978 470.684509,659.355042 
	C467.611633,660.249756 465.262787,660.021851 463.001923,657.708252 
	C462.240234,656.928833 460.909424,656.118347 459.939941,656.226746 
	C454.521454,656.832764 452.962952,652.992676 450.988556,649.220947 
	C450.164490,647.646729 447.831543,645.237915 447.050201,645.529419 
	C441.955017,647.429626 438.122467,644.298401 433.854370,642.937805 
	C435.098145,637.197693 436.341919,631.457581 438.004639,625.239258 
	C438.591034,624.461182 438.758453,624.161316 438.925873,623.861389 
	C438.913239,623.440308 438.900604,623.019287 438.893555,622.281982 
z"/>
<path fill="#1D72E8" opacity="1.000000" stroke="none" 
	d="
M433.715271,643.277161 
	C438.122467,644.298401 441.955017,647.429626 447.050201,645.529419 
	C447.831543,645.237915 450.164490,647.646729 450.988556,649.220947 
	C452.962952,652.992676 454.521454,656.832764 459.939941,656.226746 
	C460.909424,656.118347 462.240234,656.928833 463.001923,657.708252 
	C465.262787,660.021851 467.611633,660.249756 470.684509,659.355042 
	C474.771729,658.164978 478.483032,659.412231 480.178192,663.572266 
	C481.841156,667.653198 484.211487,669.455444 488.808075,669.180298 
	C491.655609,669.009827 494.592194,670.326538 497.923401,671.048462 
	C494.189392,673.500122 490.020844,675.879089 485.430420,677.871887 
	C484.203430,676.703491 483.398315,675.921326 482.593201,675.139160 
	C482.128235,676.861084 481.663269,678.583008 481.198303,680.304932 
	C478.046783,681.570312 474.895264,682.835632 471.194458,683.835083 
	C469.816040,683.821533 468.986847,684.073792 468.157654,684.326050 
	C462.230682,685.935181 456.385834,688.077148 450.354156,689.007141 
	C444.016785,689.984314 437.503632,689.915588 431.061462,690.091614 
	C424.910095,690.259705 423.748810,688.667480 425.122559,682.673950 
	C426.805908,675.329651 428.470978,667.981018 430.109070,660.626465 
	C430.574280,658.537781 430.917999,656.422058 431.657166,654.337646 
	C432.576843,654.615784 433.626892,655.161804 433.668884,655.093018 
	C435.255127,652.491943 436.209106,649.907410 432.760864,647.928284 
	C433.032654,646.491028 433.304413,645.053772 433.715271,643.277161 
z"/>
<path fill="#277AE8" opacity="1.000000" stroke="none" 
	d="
M432.537109,648.223511 
	C436.209106,649.907410 435.255127,652.491943 433.668884,655.093018 
	C433.626892,655.161804 432.576843,654.615784 431.905823,654.009155 
	C431.980988,651.947449 432.147186,650.233093 432.537109,648.223511 
z"/>
<path fill="#277AE8" opacity="1.000000" stroke="none" 
	d="
M481.506592,680.225342 
	C481.663269,678.583008 482.128235,676.861084 482.593201,675.139160 
	C483.398315,675.921326 484.203430,676.703491 485.035065,677.907104 
	C483.979370,678.934326 482.897156,679.540100 481.506592,680.225342 
z"/>
<path fill="#2F81EA" opacity="1.000000" stroke="none" 
	d="
M512.374756,662.071167 
	C512.385010,659.991333 510.790466,655.820618 515.920349,658.944092 
	C514.961487,660.174988 513.829224,661.106384 512.374756,662.071167 
z"/>
<path fill="#3787EB" opacity="1.000000" stroke="none" 
	d="
M550.326050,607.893127 
	C550.232727,607.411316 550.369812,606.742249 550.818359,606.060547 
	C550.938599,606.600525 550.747498,607.153198 550.326050,607.893127 
z"/>
<path fill="#2F81EA" opacity="1.000000" stroke="none" 
	d="
M509.403870,663.149902 
	C509.665344,662.696472 510.207092,662.190186 510.917725,661.949707 
	C510.619141,662.509338 510.151642,662.803223 509.403870,663.149902 
z"/>
<path fill="#277AE8" opacity="1.000000" stroke="none" 
	d="
M468.508698,684.271729 
	C468.986847,684.073792 469.816040,683.821533 470.821136,683.845337 
	C470.284607,684.153442 469.572174,684.185425 468.508698,684.271729 
z"/>
<path fill="#2F81EA" opacity="1.000000" stroke="none" 
	d="
M438.715942,624.007568 
	C438.758453,624.161316 438.591034,624.461182 438.189087,624.880859 
	C438.138336,624.718262 438.322144,624.435974 438.715942,624.007568 
z"/>
<path fill="#1D72E8" opacity="1.000000" stroke="none" 
	d="
M505.172150,667.994385 
	C505.157440,667.787781 505.428772,667.507935 505.991028,667.158264 
	C506.007355,667.366028 505.732758,667.643616 505.172150,667.994385 
z"/>
<path fill="#3787EB" opacity="1.000000" stroke="none" 
	d="
M541.258545,629.955811 
	C541.106201,629.739258 541.270752,629.460510 541.756348,629.125183 
	C541.900024,629.339355 541.732727,629.614380 541.258545,629.955811 
z"/>
<path fill="#5FA5F0" opacity="1.000000" stroke="none" 
	d="
M586.320801,445.860046 
	C586.735901,445.007996 587.466553,444.005890 588.533325,442.995422 
	C588.965271,443.302979 589.057007,443.620087 589.160095,444.175659 
	C588.329041,444.845306 587.482666,445.277649 586.320801,445.860046 
z"/>
<path fill="#68ABF1" opacity="1.000000" stroke="none" 
	d="
M405.271545,480.740448 
	C404.340118,481.075714 403.207428,480.980804 403.101166,481.266998 
	C401.520294,485.524628 397.540070,484.865814 394.562347,484.783905 
	C391.507263,484.699890 388.461517,483.097931 385.473450,481.993134 
	C378.460754,479.400421 371.484558,476.708832 364.494476,474.055023 
	C362.964508,473.474152 360.957916,473.313477 359.987305,472.228760 
	C353.270447,464.722046 343.910187,465.455750 335.268036,464.044220 
	C331.368622,463.407349 327.330139,463.556793 323.468903,462.781128 
	C321.755188,462.436890 320.379333,460.594818 318.749420,459.597076 
	C317.157074,458.622314 315.436462,457.857025 313.386932,457.000732 
	C313.294891,450.274536 313.588074,443.547333 314.348053,436.411041 
	C316.078888,436.251312 317.480225,436.235840 318.578522,436.805054 
	C320.893402,438.004700 322.924133,439.804840 325.301727,440.818451 
	C328.487457,442.176605 331.853088,443.172699 335.216553,444.029816 
	C337.049194,444.496857 339.035370,444.431915 340.955078,444.470642 
	C343.943329,444.530914 346.983185,444.139740 349.908722,444.569305 
	C352.481140,444.946960 354.938538,446.155701 357.426208,447.054230 
	C364.847900,449.734894 372.970703,451.309723 379.506653,455.409668 
	C389.066040,461.406219 399.659912,463.665009 410.008545,467.017090 
	C408.521606,471.507233 407.034637,475.997375 405.271545,480.740448 
z"/>
<path fill="#4E98EE" opacity="1.000000" stroke="none" 
	d="
M331.505890,397.876343 
	C336.360260,401.337799 340.751160,404.270691 346.735474,405.760223 
	C357.663635,408.480347 368.437500,411.692535 379.649811,413.198730 
	C381.307892,413.421509 382.699005,415.186859 384.368866,415.844147 
	C391.503662,418.652405 398.657471,421.423035 405.881073,423.991577 
	C411.495422,425.987946 417.218109,427.681213 422.901703,429.480682 
	C434.893982,433.277527 446.883270,436.787598 459.664062,437.250366 
	C463.126617,437.375702 466.478821,440.548767 469.935059,442.673035 
	C457.947662,443.703552 445.906860,444.384003 433.216736,444.788513 
	C426.439240,442.342896 420.450928,439.339081 414.136444,438.279846 
	C409.479462,437.498718 405.148987,437.002258 401.151459,434.233185 
	C399.676758,433.211670 397.350250,433.488434 395.465790,432.976105 
	C391.088379,431.786072 386.737366,430.497162 382.388153,429.206329 
	C380.041260,428.509735 377.763153,427.509827 375.376740,427.035492 
	C372.095245,426.383240 368.681122,426.355621 365.430237,425.601471 
	C359.591705,424.247009 353.914734,421.930420 348.019989,421.148224 
	C339.873047,420.067139 331.613190,419.998352 324.737457,414.539764 
	C324.060638,414.002472 322.839508,414.150757 321.871033,413.980804 
	C324.962463,408.623627 328.053925,403.266479 331.505890,397.876343 
z"/>
<path fill="#5FA5F0" opacity="1.000000" stroke="none" 
	d="
M410.017517,466.768250 
	C399.659912,463.665009 389.066040,461.406219 379.506653,455.409668 
	C372.970703,451.309723 364.847900,449.734894 357.426208,447.054230 
	C354.938538,446.155701 352.481140,444.946960 349.908722,444.569305 
	C346.983185,444.139740 343.943329,444.530914 340.955078,444.470642 
	C339.035370,444.431915 337.049194,444.496857 335.216553,444.029816 
	C331.853088,443.172699 328.487457,442.176605 325.301727,440.818451 
	C322.924133,439.804840 320.893402,438.004700 318.578522,436.805054 
	C317.480225,436.235840 316.078888,436.251312 314.406372,436.005249 
	C315.625580,430.922302 317.253235,425.836060 319.205231,420.568848 
	C324.074554,428.854614 333.197235,429.319794 340.352234,429.168701 
	C348.460358,428.997498 354.926331,431.596313 361.936371,434.226990 
	C369.731232,437.152130 377.620361,440.547943 385.748749,441.626465 
	C391.889709,442.441254 396.257416,444.093445 400.115875,448.836304 
	C404.348602,454.039185 411.662140,454.274353 417.029999,450.732330 
	C418.368896,449.848846 420.970703,450.879242 422.992065,451.029968 
	C419.422668,454.820923 415.853241,458.611877 411.807800,462.707550 
	C410.899109,464.015350 410.466400,465.018402 410.033722,466.021454 
	C410.033722,466.021454 410.026459,466.519409 410.017517,466.768250 
z"/>
<path fill="#559EEF" opacity="1.000000" stroke="none" 
	d="
M423.239929,451.032227 
	C420.970703,450.879242 418.368896,449.848846 417.029999,450.732330 
	C411.662140,454.274353 404.348602,454.039185 400.115875,448.836304 
	C396.257416,444.093445 391.889709,442.441254 385.748749,441.626465 
	C377.620361,440.547943 369.731232,437.152130 361.936371,434.226990 
	C354.926331,431.596313 348.460358,428.997498 340.352234,429.168701 
	C333.197235,429.319794 324.074554,428.854614 319.254089,420.198273 
	C319.777252,418.149780 320.575897,416.290924 321.622803,414.206421 
	C322.839508,414.150757 324.060638,414.002472 324.737457,414.539764 
	C331.613190,419.998352 339.873047,420.067139 348.019989,421.148224 
	C353.914734,421.930420 359.591705,424.247009 365.430237,425.601471 
	C368.681122,426.355621 372.095245,426.383240 375.376740,427.035492 
	C377.763153,427.509827 380.041260,428.509735 382.388153,429.206329 
	C386.737366,430.497162 391.088379,431.786072 395.465790,432.976105 
	C397.350250,433.488434 399.676758,433.211670 401.151459,434.233185 
	C405.148987,437.002258 409.479462,437.498718 414.136444,438.279846 
	C420.450928,439.339081 426.439240,442.342896 432.806274,444.803162 
	C432.936096,445.389282 432.756836,445.633148 432.059021,446.028046 
	C431.417114,446.512756 431.223541,446.794708 431.029938,447.076660 
	C429.474396,447.854340 427.918854,448.632019 425.883850,449.726807 
	C424.930664,450.368195 424.456970,450.692505 423.983276,451.016785 
	C423.983276,451.016785 423.487823,451.034515 423.239929,451.032227 
z"/>
<path fill="#559EEF" opacity="1.000000" stroke="none" 
	d="
M462.610229,505.096863 
	C462.811310,507.902374 462.773254,510.911316 462.511383,513.900635 
	C462.475616,514.309021 461.323883,514.619507 460.319275,514.973022 
	C460.733337,511.745178 461.516937,508.519623 462.610229,505.096863 
z"/>
<path fill="#5FA5F0" opacity="1.000000" stroke="none" 
	d="
M469.917572,467.369110 
	C470.605286,467.723083 471.257050,468.415497 471.908783,469.107910 
	C471.182922,469.728882 470.457062,470.349854 469.355835,470.969543 
	C469.280823,469.881348 469.581207,468.794434 469.917572,467.369110 
z"/>
<path fill="#4E98EE" opacity="1.000000" stroke="none" 
	d="
M456.598022,533.185669 
	C456.743469,534.246216 456.640167,535.553772 456.168762,536.865601 
	C455.983551,535.724121 456.166443,534.578430 456.598022,533.185669 
z"/>
<path fill="#68ABF1" opacity="1.000000" stroke="none" 
	d="
M410.317993,465.874390 
	C410.466400,465.018402 410.899109,464.015350 411.667877,463.013489 
	C411.536713,463.918884 411.069489,464.823120 410.317993,465.874390 
z"/>
<path fill="#4E98EE" opacity="1.000000" stroke="none" 
	d="
M424.285767,450.996613 
	C424.456970,450.692505 424.930664,450.368195 425.703308,450.014740 
	C425.530914,450.315857 425.059601,450.646149 424.285767,450.996613 
z"/>
<path fill="#4E98EE" opacity="1.000000" stroke="none" 
	d="
M431.252930,446.952942 
	C431.223541,446.794708 431.417114,446.512756 431.853943,446.131927 
	C431.890076,446.298462 431.683014,446.563843 431.252930,446.952942 
z"/>
<path fill="#2F81EA" opacity="1.000000" stroke="none" 
	d="
M392.376526,346.588501 
	C392.909027,348.557373 393.971832,350.886627 390.025055,350.548401 
	C388.584808,350.424988 386.981384,352.206665 385.428101,353.133728 
	C385.428101,353.738708 385.222168,354.446411 385.457977,354.655182 
	C393.109283,361.429626 398.520020,371.844177 410.970764,370.970306 
	C421.016602,370.265198 430.373627,373.895935 440.076172,375.323151 
	C441.723083,375.565369 443.052734,377.529999 444.731873,378.085266 
	C447.542511,379.014679 450.613708,379.177826 453.394440,380.170135 
	C456.136902,381.148834 458.654968,382.756348 460.949738,384.878296 
	C465.426910,385.316681 470.207153,383.706116 474.782135,387.426727 
	C476.051025,388.458618 479.697266,386.567230 482.645721,386.012024 
	C483.057098,386.173157 483.075500,386.339325 482.786987,387.007385 
	C482.021667,391.352600 481.563263,395.195923 481.104858,399.039215 
	C480.256805,403.518951 479.408752,407.998718 478.287781,412.744324 
	C475.795715,409.754639 470.610626,410.100342 469.187134,408.420410 
	C463.745850,401.998810 454.669342,406.195160 449.485138,400.439728 
	C449.057556,399.965027 447.916962,400.096039 447.100800,400.014252 
	C443.605927,399.664154 439.858215,400.028320 436.662476,398.866913 
	C429.320984,396.198822 422.399567,392.344604 415.013092,389.840759 
	C409.977203,388.133698 404.431458,387.960663 399.135437,386.983917 
	C392.103149,385.686951 385.091003,384.519989 379.495605,379.229431 
	C377.985382,377.801544 375.126007,377.670013 372.830536,377.236572 
	C370.020599,376.705902 367.108002,376.687256 364.320129,376.078979 
	C360.359222,375.214722 356.471558,374.014893 352.090210,372.925659 
	C353.703094,370.610870 355.476166,367.918182 357.911774,366.125885 
	C364.549896,361.241272 371.274567,356.411804 378.348297,352.205109 
	C382.524536,349.721527 387.428955,348.462433 392.376526,346.588501 
z"/>
<path fill="#1D72E8" opacity="1.000000" stroke="none" 
	d="
M397.612335,343.907715 
	C397.389557,344.262817 396.830963,344.586151 395.919922,344.893005 
	C396.137146,344.542969 396.706818,344.209442 397.612335,343.907715 
z"/>
<path fill="#1D72E8" opacity="1.000000" stroke="none" 
	d="
M393.737793,345.106567 
	C393.791962,345.300232 393.568542,345.574524 393.116760,345.994629 
	C393.079010,345.822662 393.269623,345.504913 393.737793,345.106567 
z"/>
<path fill="#5FA5F0" opacity="1.000000" stroke="none" 
	d="
M576.278076,499.754822 
	C576.163574,499.125610 576.296631,498.289429 576.665649,497.237976 
	C576.776245,497.864410 576.650940,498.706146 576.278076,499.754822 
z"/>
<path fill="#5FA5F0" opacity="1.000000" stroke="none" 
	d="
M569.366089,532.781982 
	C569.236694,531.864014 569.346375,530.694031 569.729309,529.302246 
	C569.870117,530.230286 569.737671,531.380188 569.366089,532.781982 
z"/>
<path fill="#E9E5DD" opacity="1.000000" stroke="none" 
	d="
M187.752731,1005.990356 
	C187.593445,1006.095947 187.431931,1006.043945 187.270416,1005.991943 
	C187.430466,1005.938843 187.590500,1005.885803 187.752731,1005.990356 
z"/>
<path fill="#559EEF" opacity="1.000000" stroke="none" 
	d="
M481.462769,398.939453 
	C481.563263,395.195923 482.021667,391.352600 482.794800,387.258057 
	C483.398010,387.476959 483.686523,387.947113 484.000824,388.705566 
	C483.291290,392.275818 482.555969,395.557770 481.462769,398.939453 
z"/>
</svg>